<svg width="46" height="28" viewBox="0 0 46 28" fill="none" xmlns="http://www.w3.org/2000/svg">
<path d="M1.59 23C2.87 21.76 4.09 20.54 5.25 19.34C6.41 18.14 7.45 16.98 8.37 15.86C9.31 14.74 10.05 13.66 10.59 12.62C11.13 11.56 11.4 10.54 11.4 9.56C11.4 8.9 11.29 8.34 11.07 7.88C10.85 7.4 10.56 7.01 10.2 6.71C9.86 6.41 9.47 6.19 9.03 6.05C8.59 5.89 8.14 5.81 7.68 5.81C7.02 5.81 6.46 5.92 6 6.14C5.54 6.34 5.16 6.61 4.86 6.95C4.58 7.29 4.37 7.65 4.23 8.03C4.11 8.41 4.05 8.79 4.05 9.17C4.05 9.83 4.15 10.43 4.35 10.97C4.55 11.49 4.84 11.95 5.22 12.35L3.42 13.94C2.96 13.64 2.56 13.22 2.22 12.68C1.9 12.14 1.65 11.56 1.47 10.94C1.31 10.3 1.23 9.73 1.23 9.23C1.23 8.15 1.49 7.14 2.01 6.2C2.55 5.24 3.33 4.47 4.35 3.89C5.39 3.31 6.65 3.02 8.13 3.02C9.39 3.02 10.49 3.31 11.43 3.89C12.37 4.47 13.1 5.24 13.62 6.2C14.14 7.14 14.4 8.18 14.4 9.32C14.4 10.32 14.2 11.3 13.8 12.26C13.4 13.22 12.86 14.17 12.18 15.11C11.52 16.05 10.78 16.98 9.96 17.9C9.16 18.8 8.36 19.71 7.56 20.63L6.3 20.21H15.06V23H1.59Z" fill="white"/>
<path d="M32.1737 2.08049C32.4355 1.46458 32.5664 1.15663 32.7487 1.06179C32.9071 0.979402 33.093 0.979402 33.2513 1.06179C33.4336 1.15663 33.5646 1.46458 33.8264 2.08049L35.9117 6.9863C35.9892 7.16838 36.0279 7.25941 36.0878 7.32913C36.1407 7.39082 36.2055 7.44016 36.2778 7.47394C36.3596 7.51212 36.4541 7.52258 36.6432 7.5435L41.7371 8.10727C42.3766 8.17804 42.6963 8.21342 42.8387 8.36591C42.9623 8.49836 43.0197 8.68383 42.9939 8.86721C42.9643 9.07829 42.7255 9.30396 42.2478 9.75542L38.4427 13.3512C38.3015 13.4846 38.2308 13.5513 38.1862 13.6326C38.1466 13.7046 38.1218 13.7844 38.1136 13.8669C38.1042 13.9602 38.1239 14.0577 38.1633 14.2528L39.2261 19.507C39.3596 20.1666 39.4263 20.4964 39.332 20.6855C39.25 20.8498 39.0996 20.9644 38.9253 20.9953C38.7247 21.0309 38.4462 20.8625 37.8891 20.5256L33.452 17.842C33.2874 17.7424 33.205 17.6927 33.1175 17.6731C33.04 17.6559 32.96 17.6559 32.8825 17.6731C32.795 17.6927 32.7127 17.7424 32.548 17.842L28.111 20.5256C27.5539 20.8625 27.2754 21.0309 27.0747 20.9953C26.9005 20.9644 26.75 20.8498 26.6681 20.6855C26.5738 20.4964 26.6405 20.1666 26.7739 19.507L27.8367 14.2528C27.8761 14.0577 27.8959 13.9602 27.8865 13.8669C27.8782 13.7844 27.8535 13.7046 27.8139 13.6326C27.7692 13.5513 27.6986 13.4846 27.5573 13.3512L23.7523 9.75542C23.2746 9.30396 23.0358 9.07829 23.0061 8.86721C22.9803 8.68383 23.0377 8.49836 23.1614 8.36591C23.3037 8.21342 23.6235 8.17804 24.263 8.10727L29.3569 7.5435C29.546 7.52258 29.6405 7.51212 29.7222 7.47394C29.7945 7.44016 29.8593 7.39082 29.9123 7.32913C29.9722 7.25941 30.0109 7.16838 30.0883 6.9863L32.1737 2.08049Z" fill="#FFE352"/>
</svg>
