<svg width="40" height="40" viewBox="0 0 40 40" fill="none" xmlns="http://www.w3.org/2000/svg">
<path d="M27 6C28.2694 5.9998 29.4914 6.48247 30.4181 7.35008C31.3448 8.21769 31.9067 9.4053 31.99 10.672L32 11V16.1C33.0717 16.3192 34.042 16.8836 34.7622 17.7068C35.4825 18.5301 35.9131 19.5667 35.988 20.658L36 21V33C36.0005 33.2499 35.9073 33.4909 35.739 33.6756C35.5706 33.8602 35.3392 33.9752 35.0904 33.9977C34.8415 34.0203 34.5932 33.9489 34.3943 33.7976C34.1955 33.6462 34.0605 33.4259 34.016 33.18L34 33V28H6V33C6.00046 33.2499 5.90734 33.4909 5.73898 33.6756C5.57062 33.8602 5.33923 33.9752 5.09036 33.9977C4.84149 34.0203 4.59318 33.9489 4.39434 33.7976C4.19549 33.6462 4.06052 33.4259 4.016 33.18L4 33V21C3.99976 19.8473 4.39778 18.73 5.12669 17.8371C5.8556 16.9442 6.87064 16.3305 8 16.1V11C7.9998 9.73056 8.48247 8.50858 9.35008 7.58191C10.2177 6.65524 11.4053 6.09328 12.672 6.01L13 6H27ZM31 18H9C8.25455 18 7.53579 18.2775 6.98378 18.7785C6.43178 19.2795 6.08606 19.968 6.014 20.71L6 21V26H34V21C34 20.2545 33.7225 19.5358 33.2215 18.9838C32.7205 18.4318 32.032 18.0861 31.29 18.014L31 18ZM27 8H13C12.2542 8.00004 11.5352 8.27784 10.9832 8.77924C10.4311 9.28064 10.0856 9.96968 10.014 10.712L10 11V16H12V15C12 14.7348 12.1054 14.4804 12.2929 14.2929C12.4804 14.1054 12.7348 14 13 14H18C18.2652 14 18.5196 14.1054 18.7071 14.2929C18.8946 14.4804 19 14.7348 19 15V16H21V15C21 14.7348 21.1054 14.4804 21.2929 14.2929C21.4804 14.1054 21.7348 14 22 14H27C27.2652 14 27.5196 14.1054 27.7071 14.2929C27.8946 14.4804 28 14.7348 28 15V16H30V11C30 10.2545 29.7225 9.53579 29.2215 8.98378C28.7205 8.43178 28.032 8.08606 27.29 8.014L27 8Z" fill="white"/>
</svg>
