<svg width="652" height="89" viewBox="0 0 652 89" fill="none" xmlns="http://www.w3.org/2000/svg">
<path d="M61.6235 25.0468L54.2422 21.739C53.9078 21.5957 53.5429 21.5381 53.1806 21.5714C52.8182 21.6047 52.4699 21.7278 52.1672 21.9297C52.1365 21.9494 52.1072 21.9713 52.0797 21.9953L48.2219 25.2765C48.1819 25.2984 48.1373 25.3106 48.0917 25.3122C48.0462 25.3138 48.0009 25.3048 47.9594 25.2859C45.4797 24.089 42.911 21.5359 41.7094 19.0906C41.6894 19.0497 41.679 19.0048 41.679 18.9593C41.679 18.9138 41.6894 18.869 41.7094 18.8281L45.0016 14.9218C45.0252 14.8929 45.0471 14.8627 45.0672 14.8312C45.2662 14.5273 45.3865 14.1786 45.417 13.8166C45.4476 13.4546 45.3875 13.0907 45.2422 12.7578L41.9578 5.38903C41.7713 4.95404 41.4487 4.59128 41.0385 4.35519C40.6284 4.1191 40.1526 4.02242 39.6828 4.07965C37.641 4.34809 35.7668 5.35081 34.4104 6.90044C33.054 8.45007 32.3082 10.4406 32.3125 12.5C32.3125 24.7343 42.2656 34.6875 54.5 34.6875C56.5593 34.6914 58.5496 33.9456 60.0992 32.5892C61.6488 31.2329 62.6516 29.3589 62.9203 27.3172C62.9774 26.8495 62.8821 26.376 62.6484 25.9669C62.4147 25.5579 62.0553 25.2352 61.6235 25.0468ZM54.5 32.8125C43.3 32.8125 34.1875 23.7 34.1875 12.5C34.1823 10.8967 34.761 9.34644 35.8154 8.13873C36.8698 6.93103 38.3279 6.14854 39.9172 5.93747H39.9531C40.0161 5.93864 40.0773 5.95882 40.1286 5.99534C40.1799 6.03187 40.2189 6.08304 40.2406 6.14216L43.5375 13.5031C43.5563 13.544 43.5661 13.5885 43.5661 13.6336C43.5661 13.6786 43.5563 13.7231 43.5375 13.764L40.2391 17.6797C40.2145 17.7076 40.192 17.7374 40.1719 17.7687C39.9655 18.0838 39.844 18.4469 39.819 18.8227C39.7941 19.1985 39.8667 19.5745 40.0297 19.914C41.4156 22.7515 44.275 25.589 47.1438 26.975C47.4853 27.1371 47.8631 27.2079 48.2401 27.1805C48.6172 27.1531 48.9808 27.0285 49.2953 26.8187C49.325 26.7984 49.3547 26.7765 49.3828 26.7531L53.2391 23.4718C53.2772 23.4514 53.3192 23.4394 53.3624 23.4367C53.4055 23.434 53.4487 23.4407 53.4891 23.4562L60.8719 26.764C60.9322 26.7897 60.9829 26.8337 61.0168 26.8898C61.0508 26.9459 61.0662 27.0112 61.061 27.0765C60.851 28.6665 60.0692 30.1257 58.8618 31.1813C57.6543 32.2369 56.1038 32.8168 54.5 32.8125Z" fill="white"/>
<g clip-path="url(#clip0_145_243)">
<path d="M158 27.1333C157.121 27.1333 156.262 27.394 155.531 27.8823C154.8 28.3707 154.23 29.0648 153.894 29.8769C153.557 30.689 153.469 31.5827 153.641 32.4448C153.812 33.307 154.236 34.0989 154.857 34.7204C155.479 35.342 156.271 35.7653 157.133 35.9368C157.995 36.1083 158.889 36.0203 159.701 35.6839C160.513 35.3475 161.207 34.7778 161.695 34.0469C162.184 33.3161 162.444 32.4568 162.444 31.5777C162.444 30.399 161.976 29.2685 161.143 28.435C160.309 27.6016 159.179 27.1333 158 27.1333ZM158 33.8C157.56 33.8 157.131 33.6696 156.765 33.4255C156.4 33.1813 156.115 32.8342 155.947 32.4282C155.779 32.0221 155.735 31.5753 155.82 31.1442C155.906 30.7131 156.118 30.3172 156.429 30.0064C156.739 29.6956 157.135 29.484 157.566 29.3982C157.998 29.3125 158.444 29.3565 158.85 29.5247C159.256 29.6929 159.604 29.9777 159.848 30.3431C160.092 30.7086 160.222 31.1382 160.222 31.5777C160.222 32.1671 159.988 32.7323 159.571 33.1491C159.155 33.5658 158.589 33.8 158 33.8Z" fill="white"/>
<path d="M167.122 24.2777C167.208 24.159 167.27 24.0244 167.303 23.8818C167.337 23.7392 167.342 23.5914 167.318 23.4468C167.294 23.3022 167.242 23.1637 167.165 23.0394C167.087 22.915 166.986 22.8072 166.867 22.7222C165.203 21.5271 163.312 20.684 161.311 20.2444L165.611 24.5444C165.849 24.7028 166.139 24.7635 166.42 24.7138C166.702 24.6641 166.953 24.508 167.122 24.2777Z" fill="white"/>
<path d="M158.056 11.9111C156.503 11.9153 154.954 12.0754 153.433 12.3889L155.367 14.3222C156.258 14.2021 157.156 14.139 158.056 14.1334C162.255 14.135 166.357 15.4053 169.822 17.7778C170.065 17.917 170.352 17.9594 170.625 17.8963C170.898 17.8332 171.137 17.6695 171.294 17.4377C171.451 17.206 171.515 16.9234 171.473 16.6466C171.431 16.3697 171.286 16.1189 171.067 15.9445C167.235 13.3202 162.7 11.9144 158.056 11.9111Z" fill="white"/>
<path d="M175.278 9.11115C171.152 6.38521 166.439 4.6777 161.524 4.12911C156.61 3.58051 151.636 4.20651 147.011 5.95559L148.767 7.70004C152.951 6.27331 157.407 5.82589 161.791 6.39223C166.175 6.95857 170.371 8.52357 174.056 10.9667C174.302 11.123 174.599 11.1763 174.884 11.1152C175.169 11.0541 175.419 10.8834 175.579 10.64C175.74 10.3966 175.798 10.0999 175.741 9.81387C175.685 9.52788 175.519 9.27551 175.278 9.11115Z" fill="white"/>
<path d="M140.044 5.27783L142.744 7.97783C142.056 8.35561 141.378 8.75561 140.711 9.20006C140.59 9.28177 140.486 9.38653 140.406 9.50837C140.325 9.63021 140.269 9.76673 140.241 9.91015C140.185 10.1998 140.246 10.4999 140.411 10.7445C140.576 10.9891 140.832 11.1581 141.121 11.2144C141.411 11.2706 141.711 11.2095 141.956 11.0445C142.733 10.5223 143.556 10.0001 144.378 9.61117L148.678 13.9112C147.363 14.4881 146.106 15.1875 144.922 16.0001C144.747 16.1867 144.642 16.428 144.625 16.6831C144.607 16.9382 144.678 17.1916 144.826 17.4005C144.973 17.6094 145.188 17.761 145.435 17.8297C145.681 17.8985 145.943 17.8801 146.178 17.7778C147.485 16.8807 148.891 16.1351 150.367 15.5556L154.989 20.1778C152.86 20.6267 150.855 21.5328 149.111 22.8334C148.894 23.0144 148.754 23.2714 148.72 23.552C148.685 23.8326 148.759 24.1158 148.926 24.3438C149.093 24.5718 149.341 24.7275 149.619 24.7793C149.897 24.831 150.184 24.7749 150.422 24.6223C152.318 23.2456 154.554 22.4155 156.889 22.2223L168.889 34.2223L170.456 32.6556L141.567 3.76672L140.044 5.27783Z" fill="white"/>
</g>
<path d="M254.833 13.3333C254.834 11.7532 255.242 10.2 256.02 8.82439C256.798 7.44881 257.918 6.29759 259.271 5.48244C260.625 4.6673 262.166 4.21592 263.746 4.1721C265.325 4.12829 266.889 4.49352 268.286 5.23237C269.683 5.97121 270.865 7.05857 271.718 8.38893C272.57 9.71929 273.064 11.2475 273.152 12.8252C273.24 14.4029 272.919 15.9765 272.219 17.3934C271.52 18.8102 270.466 20.0222 269.16 20.9117C271.972 21.9432 274.412 23.7929 276.164 26.2225C277.917 28.6522 278.902 31.5507 278.993 34.545C278.989 34.8678 278.861 35.1767 278.635 35.407C278.408 35.6374 278.102 35.7714 277.779 35.7811C277.457 35.7907 277.143 35.6753 276.903 35.459C276.663 35.2426 276.517 34.942 276.493 34.62C276.394 31.3724 275.034 28.2911 272.702 26.029C270.37 23.7669 267.248 22.5018 263.999 22.5018C260.75 22.5018 257.629 23.7669 255.296 26.029C252.964 28.2911 251.604 31.3724 251.505 34.62C251.488 34.9464 251.344 35.2533 251.104 35.4749C250.864 35.6965 250.547 35.8152 250.22 35.8056C249.893 35.7961 249.583 35.6589 249.357 35.4236C249.13 35.1883 249.004 34.8735 249.007 34.5467C249.098 31.5521 250.083 28.6532 251.835 26.2232C253.588 23.7932 256.027 21.9433 258.84 20.9117C257.605 20.0711 256.594 18.941 255.895 17.6201C255.197 16.2992 254.832 14.8275 254.833 13.3333ZM264 6.66667C262.232 6.66667 260.536 7.36905 259.286 8.61929C258.036 9.86953 257.333 11.5652 257.333 13.3333C257.333 15.1014 258.036 16.7971 259.286 18.0474C260.536 19.2976 262.232 20 264 20C265.768 20 267.464 19.2976 268.714 18.0474C269.964 16.7971 270.667 15.1014 270.667 13.3333C270.667 11.5652 269.964 9.86953 268.714 8.61929C267.464 7.36905 265.768 6.66667 264 6.66667ZM277.817 13.3333C277.57 13.3333 277.33 13.35 277.093 13.3833C276.928 13.4129 276.759 13.4089 276.595 13.3716C276.431 13.3342 276.277 13.2643 276.141 13.166C276.005 13.0676 275.89 12.9429 275.803 12.7992C275.716 12.6556 275.659 12.4959 275.636 12.3297C275.612 12.1635 275.622 11.9942 275.665 11.832C275.708 11.6698 275.783 11.5179 275.886 11.3854C275.989 11.2529 276.118 11.1425 276.265 11.0608C276.411 10.9792 276.573 10.9279 276.74 10.91C278.398 10.6703 280.088 10.9887 281.545 11.8149C283.002 12.6411 284.142 13.9283 284.788 15.4739C285.433 17.0195 285.546 18.7357 285.109 20.3526C284.672 21.9694 283.709 23.395 282.373 24.405C284.337 25.2844 286.005 26.7133 287.175 28.5194C288.345 30.3254 288.967 32.4315 288.967 34.5833C288.967 34.9149 288.835 35.2328 288.601 35.4672C288.366 35.7016 288.048 35.8333 287.717 35.8333C287.385 35.8333 287.067 35.7016 286.833 35.4672C286.598 35.2328 286.467 34.9149 286.467 34.5833C286.466 32.7236 285.867 30.9133 284.758 29.4208C283.648 27.9283 282.087 26.8328 280.307 26.2967L279.417 26.03V23.2367L280.1 22.8883C281.113 22.3752 281.923 21.5358 282.4 20.5054C282.878 19.4751 282.994 18.314 282.73 17.2096C282.466 16.1052 281.837 15.122 280.946 14.4187C280.055 13.7154 278.952 13.333 277.817 13.3333Z" fill="white"/>
<path d="M387 6C388.269 5.9998 389.491 6.48247 390.418 7.35008C391.345 8.21769 391.907 9.4053 391.99 10.672L392 11V16.1C393.072 16.3192 394.042 16.8836 394.762 17.7068C395.483 18.5301 395.913 19.5667 395.988 20.658L396 21V33C396 33.2499 395.907 33.4909 395.739 33.6756C395.571 33.8602 395.339 33.9752 395.09 33.9977C394.841 34.0203 394.593 33.9489 394.394 33.7976C394.195 33.6462 394.061 33.4259 394.016 33.18L394 33V28H366V33C366 33.2499 365.907 33.4909 365.739 33.6756C365.571 33.8602 365.339 33.9752 365.09 33.9977C364.841 34.0203 364.593 33.9489 364.394 33.7976C364.195 33.6462 364.061 33.4259 364.016 33.18L364 33V21C364 19.8473 364.398 18.73 365.127 17.8371C365.856 16.9442 366.871 16.3305 368 16.1V11C368 9.73056 368.482 8.50858 369.35 7.58191C370.218 6.65524 371.405 6.09328 372.672 6.01L373 6H387ZM391 18H369C368.255 18 367.536 18.2775 366.984 18.7785C366.432 19.2795 366.086 19.968 366.014 20.71L366 21V26H394V21C394 20.2545 393.722 19.5358 393.222 18.9838C392.721 18.4318 392.032 18.0861 391.29 18.014L391 18ZM387 8H373C372.254 8.00004 371.535 8.27784 370.983 8.77924C370.431 9.28064 370.086 9.96968 370.014 10.712L370 11V16H372V15C372 14.7348 372.105 14.4804 372.293 14.2929C372.48 14.1054 372.735 14 373 14H378C378.265 14 378.52 14.1054 378.707 14.2929C378.895 14.4804 379 14.7348 379 15V16H381V15C381 14.7348 381.105 14.4804 381.293 14.2929C381.48 14.1054 381.735 14 382 14H387C387.265 14 387.52 14.1054 387.707 14.2929C387.895 14.4804 388 14.7348 388 15V16H390V11C390 10.2545 389.722 9.53579 389.222 8.98378C388.721 8.43178 388.032 8.08606 387.29 8.014L387 8Z" fill="white"/>
<path d="M498.967 12.0333C499.203 12.2666 499.333 12.585 499.333 12.9166V17.0833C499.333 17.4148 499.202 17.7328 498.967 17.9672C498.733 18.2016 498.415 18.3333 498.083 18.3333C497.752 18.3333 497.434 18.2016 497.199 17.9672C496.965 17.7328 496.833 17.4148 496.833 17.0833V15.9333L493.967 18.8C493.851 18.9193 493.713 19.0145 493.561 19.0799C493.408 19.1453 493.244 19.1797 493.078 19.1811C492.912 19.1825 492.748 19.1508 492.594 19.0878C492.44 19.0249 492.301 18.932 492.184 18.8146C492.066 18.6972 491.974 18.5576 491.911 18.4039C491.848 18.2503 491.816 18.0857 491.818 17.9197C491.819 17.7537 491.854 17.5897 491.92 17.4372C491.985 17.2848 492.08 17.1469 492.2 17.0316L495.067 14.1666H493.917C493.585 14.1666 493.267 14.0349 493.033 13.8005C492.798 13.5661 492.667 13.2481 492.667 12.9166C492.667 12.5851 492.798 12.2672 493.033 12.0327C493.267 11.7983 493.585 11.6666 493.917 11.6666H498.083C498.415 11.6669 498.732 11.7988 498.967 12.0333ZM482.667 27.0833C482.667 27.4148 482.798 27.7328 483.033 27.9672C483.267 28.2016 483.585 28.3333 483.917 28.3333H488.085C488.416 28.3333 488.734 28.2016 488.969 27.9672C489.203 27.7328 489.335 27.4148 489.335 27.0833C489.335 26.7518 489.203 26.4338 488.969 26.1994C488.734 25.965 488.416 25.8333 488.085 25.8333H486.935L489.802 22.9666C490.029 22.7308 490.155 22.415 490.152 22.0872C490.149 21.7595 490.017 21.446 489.786 21.2144C489.554 20.9827 489.24 20.8514 488.912 20.8487C488.585 20.846 488.269 20.9721 488.033 21.2L485.167 24.0633V22.9133C485.167 22.5818 485.035 22.2638 484.8 22.0294C484.566 21.795 484.248 21.6633 483.917 21.6633C483.585 21.6633 483.267 21.795 483.033 22.0294C482.798 22.2638 482.667 22.5818 482.667 22.9133V27.0833ZM474.333 11.25C474.333 10.0344 474.816 8.86859 475.676 8.00905C476.535 7.14951 477.701 6.66663 478.917 6.66663H503.083C504.299 6.66663 505.465 7.14951 506.324 8.00905C507.184 8.86859 507.667 10.0344 507.667 11.25V28.75C507.667 29.3519 507.548 29.9478 507.318 30.5039C507.087 31.06 506.75 31.5653 506.324 31.9909C505.899 32.4165 505.393 32.7541 504.837 32.9844C504.281 33.2147 503.685 33.3333 503.083 33.3333H478.917C478.315 33.3333 477.719 33.2147 477.163 32.9844C476.607 32.7541 476.101 32.4165 475.676 31.9909C475.25 31.5653 474.912 31.06 474.682 30.5039C474.452 29.9478 474.333 29.3519 474.333 28.75V11.25ZM478.917 9.16663C477.767 9.16663 476.833 10.1 476.833 11.25V28.75C476.833 29.9 477.767 30.8333 478.917 30.8333H503.083C504.233 30.8333 505.167 29.9 505.167 28.75V11.25C505.167 10.1 504.233 9.16663 503.083 9.16663H478.917Z" fill="white"/>
<path d="M585 30V13.5C585 12.7044 585.316 11.9413 585.879 11.3787C586.441 10.8161 587.204 10.5 588 10.5H612C612.796 10.5 613.559 10.8161 614.121 11.3787C614.684 11.9413 615 12.7044 615 13.5V30C615 30.7956 614.684 31.5587 614.121 32.1213C613.559 32.6839 612.796 33 612 33H588C587.204 33 586.441 32.6839 585.879 32.1213C585.316 31.5587 585 30.7956 585 30Z" stroke="white" stroke-width="2.5"/>
<path d="M594.75 3.75L600 9L605.25 3.75" stroke="white" stroke-width="2.5" stroke-linecap="round" stroke-linejoin="round"/>
<path d="M2.624 70.376L2.768 72.296L2.688 72.04C2.85867 71.6347 3.104 71.2933 3.424 71.016C3.75467 70.728 4.096 70.5093 4.448 70.36C4.81067 70.2 5.12533 70.12 5.392 70.12L5.312 71.592C4.81067 71.56 4.368 71.656 3.984 71.88C3.61067 72.104 3.312 72.4027 3.088 72.776C2.87467 73.1493 2.768 73.5493 2.768 73.976V77H1.296V70.376H2.624ZM6.45438 73.624C6.45438 72.9627 6.60904 72.3653 6.91838 71.832C7.23838 71.2987 7.67571 70.8773 8.23038 70.568C8.78504 70.2587 9.41438 70.104 10.1184 70.104C10.8437 70.104 11.4784 70.2587 12.0224 70.568C12.5664 70.8773 12.9877 71.2987 13.2864 71.832C13.585 72.3653 13.7344 72.9627 13.7344 73.624C13.7344 74.2853 13.585 74.888 13.2864 75.432C12.9877 75.9653 12.561 76.3867 12.0064 76.696C11.4624 77.0053 10.8277 77.16 10.1024 77.16C9.39838 77.16 8.76904 77.016 8.21438 76.728C7.67038 76.4293 7.23838 76.0187 6.91838 75.496C6.60904 74.9627 6.45438 74.3387 6.45438 73.624ZM7.94238 73.64C7.94238 74.0667 8.03838 74.456 8.23038 74.808C8.42238 75.1493 8.67838 75.4213 8.99838 75.624C9.32904 75.8267 9.69171 75.928 10.0864 75.928C10.5024 75.928 10.8704 75.8267 11.1904 75.624C11.521 75.4213 11.777 75.1493 11.9584 74.808C12.1397 74.456 12.2304 74.0667 12.2304 73.64C12.2304 73.2133 12.1397 72.8293 11.9584 72.488C11.777 72.136 11.521 71.8587 11.1904 71.656C10.8704 71.4427 10.5024 71.336 10.0864 71.336C9.68104 71.336 9.31304 71.4427 8.98238 71.656C8.66238 71.8693 8.40638 72.152 8.21438 72.504C8.03304 72.8453 7.94238 73.224 7.94238 73.64ZM15.1731 73.624C15.1731 72.9627 15.3278 72.3653 15.6371 71.832C15.9571 71.2987 16.3945 70.8773 16.9491 70.568C17.5038 70.2587 18.1331 70.104 18.8371 70.104C19.5625 70.104 20.1971 70.2587 20.7411 70.568C21.2851 70.8773 21.7065 71.2987 22.0051 71.832C22.3038 72.3653 22.4531 72.9627 22.4531 73.624C22.4531 74.2853 22.3038 74.888 22.0051 75.432C21.7065 75.9653 21.2798 76.3867 20.7251 76.696C20.1811 77.0053 19.5465 77.16 18.8211 77.16C18.1171 77.16 17.4878 77.016 16.9331 76.728C16.3891 76.4293 15.9571 76.0187 15.6371 75.496C15.3278 74.9627 15.1731 74.3387 15.1731 73.624ZM16.6611 73.64C16.6611 74.0667 16.7571 74.456 16.9491 74.808C17.1411 75.1493 17.3971 75.4213 17.7171 75.624C18.0478 75.8267 18.4105 75.928 18.8051 75.928C19.2211 75.928 19.5891 75.8267 19.9091 75.624C20.2398 75.4213 20.4958 75.1493 20.6771 74.808C20.8585 74.456 20.9491 74.0667 20.9491 73.64C20.9491 73.2133 20.8585 72.8293 20.6771 72.488C20.4958 72.136 20.2398 71.8587 19.9091 71.656C19.5891 71.4427 19.2211 71.336 18.8051 71.336C18.3998 71.336 18.0318 71.4427 17.7011 71.656C17.3811 71.8693 17.1251 72.152 16.9331 72.504C16.7518 72.8453 16.6611 73.224 16.6611 73.64ZM25.7959 70.376L25.9239 71.864L25.8599 71.736C26.1052 71.2347 26.4519 70.84 26.8999 70.552C27.3585 70.264 27.8812 70.12 28.4679 70.12C28.8412 70.12 29.1719 70.1787 29.4599 70.296C29.7479 70.4133 29.9825 70.584 30.1639 70.808C30.3559 71.0213 30.4785 71.288 30.5319 71.608L30.4519 71.656C30.7079 71.176 31.0599 70.8027 31.5079 70.536C31.9665 70.2587 32.4465 70.12 32.9479 70.12C33.5985 70.12 34.1105 70.3067 34.4839 70.68C34.8679 71.0427 35.0652 71.5173 35.0759 72.104V77H33.5879V72.632C33.5772 72.2907 33.4919 72.008 33.3319 71.784C33.1825 71.5493 32.9159 71.4213 32.5319 71.4C32.1479 71.4 31.8012 71.5173 31.4919 71.752C31.1932 71.9867 30.9585 72.2907 30.7879 72.664C30.6172 73.0267 30.5265 73.4213 30.5159 73.848V77H29.0279V72.632C29.0172 72.2907 28.9265 72.008 28.7559 71.784C28.5959 71.5493 28.3239 71.4213 27.9399 71.4C27.5452 71.4 27.1985 71.5173 26.8999 71.752C26.6012 71.9867 26.3665 72.2907 26.1959 72.664C26.0359 73.0373 25.9559 73.4373 25.9559 73.864V77H24.4679V70.376H25.7959ZM44.5895 77.128C44.1202 77.128 43.6615 77.048 43.2135 76.888C42.7762 76.7173 42.4135 76.4667 42.1255 76.136L42.7495 75.272C43.0268 75.5387 43.3095 75.7413 43.5975 75.88C43.8962 76.008 44.1895 76.072 44.4775 76.072C44.6908 76.072 44.8882 76.0453 45.0695 75.992C45.2508 75.9387 45.3948 75.8533 45.5015 75.736C45.6188 75.608 45.6775 75.4373 45.6775 75.224C45.6775 74.9893 45.5975 74.8027 45.4375 74.664C45.2882 74.5253 45.0908 74.4133 44.8455 74.328C44.6108 74.2427 44.3602 74.1627 44.0935 74.088C43.5495 73.9067 43.1335 73.656 42.8455 73.336C42.5575 73.016 42.4135 72.6267 42.4135 72.168C42.4135 71.816 42.4988 71.4907 42.6695 71.192C42.8508 70.8827 43.1122 70.632 43.4535 70.44C43.8055 70.248 44.2375 70.152 44.7495 70.152C45.2082 70.152 45.6188 70.2107 45.9815 70.328C46.3442 70.4347 46.6855 70.616 47.0055 70.872L46.4135 71.8C46.2215 71.5973 45.9922 71.448 45.7255 71.352C45.4588 71.256 45.2188 71.2027 45.0055 71.192C44.8242 71.1813 44.6482 71.208 44.4775 71.272C44.3175 71.336 44.1842 71.4267 44.0775 71.544C43.9708 71.6613 43.9175 71.8 43.9175 71.96C43.9175 72.184 43.9922 72.3653 44.1415 72.504C44.2908 72.6427 44.4828 72.7547 44.7175 72.84C44.9628 72.9147 45.2028 72.9947 45.4375 73.08C45.7682 73.176 46.0615 73.304 46.3175 73.464C46.5735 73.624 46.7762 73.8213 46.9255 74.056C47.0855 74.2907 47.1655 74.584 47.1655 74.936C47.1655 75.3307 47.0695 75.6987 46.8775 76.04C46.6962 76.3707 46.4135 76.6373 46.0295 76.84C45.6562 77.032 45.1762 77.128 44.5895 77.128ZM52.3211 77.16C51.5638 77.16 50.9131 77.0107 50.3691 76.712C49.8251 76.4027 49.4038 75.9867 49.1051 75.464C48.8171 74.9307 48.6731 74.3227 48.6731 73.64C48.6731 72.9893 48.8385 72.3973 49.1691 71.864C49.4998 71.3307 49.9425 70.904 50.4971 70.584C51.0518 70.264 51.6705 70.104 52.3531 70.104C53.2278 70.104 53.9531 70.36 54.5291 70.872C55.1051 71.384 55.4945 72.088 55.6971 72.984L50.2411 74.904L49.8891 74.024L54.3691 72.392L54.0491 72.6C53.9211 72.248 53.7078 71.944 53.4091 71.688C53.1105 71.4213 52.7211 71.288 52.2411 71.288C51.8358 71.288 51.4731 71.3893 51.1531 71.592C50.8331 71.784 50.5825 72.0507 50.4011 72.392C50.2198 72.7333 50.1291 73.1227 50.1291 73.56C50.1291 74.0187 50.2251 74.424 50.4171 74.776C50.6091 75.1173 50.8705 75.3893 51.2011 75.592C51.5425 75.784 51.9265 75.88 52.3531 75.88C52.6411 75.88 52.9185 75.8267 53.1851 75.72C53.4625 75.6133 53.7185 75.4747 53.9531 75.304L54.6411 76.408C54.3105 76.632 53.9371 76.8133 53.5211 76.952C53.1158 77.0907 52.7158 77.16 52.3211 77.16ZM58.8896 70.376L59.0336 72.296L58.9536 72.04C59.1243 71.6347 59.3696 71.2933 59.6896 71.016C60.0203 70.728 60.3616 70.5093 60.7136 70.36C61.0763 70.2 61.391 70.12 61.6576 70.12L61.5776 71.592C61.0763 71.56 60.6336 71.656 60.2496 71.88C59.8763 72.104 59.5776 72.4027 59.3536 72.776C59.1403 73.1493 59.0336 73.5493 59.0336 73.976V77H57.5616V70.376H58.8896ZM66.2653 77.192L62.5853 70.376H64.3453L66.8413 75.64L65.9293 75.608L68.2173 70.376H69.8813L66.3453 77.192H66.2653ZM71.4835 70.376H72.9715V77H71.4835V70.376ZM71.3715 67.976C71.3715 67.7413 71.4622 67.544 71.6435 67.384C71.8355 67.224 72.0435 67.144 72.2675 67.144C72.4915 67.144 72.6888 67.224 72.8595 67.384C73.0408 67.544 73.1315 67.7413 73.1315 67.976C73.1315 68.2213 73.0408 68.424 72.8595 68.584C72.6888 68.7333 72.4915 68.808 72.2675 68.808C72.0435 68.808 71.8355 68.728 71.6435 68.568C71.4622 68.408 71.3715 68.2107 71.3715 67.976ZM80.922 76.392C80.6233 76.6267 80.266 76.8133 79.85 76.952C79.434 77.0907 79.018 77.16 78.602 77.16C77.8767 77.16 77.242 77.016 76.698 76.728C76.154 76.44 75.7273 76.04 75.418 75.528C75.1193 75.0053 74.97 74.392 74.97 73.688C74.97 72.984 75.13 72.3707 75.45 71.848C75.7807 71.3253 76.2073 70.9253 76.73 70.648C77.2633 70.36 77.834 70.216 78.442 70.216C78.9753 70.216 79.45 70.2907 79.866 70.44C80.2927 70.5893 80.6553 70.792 80.954 71.048L80.218 72.008C80.026 71.8587 79.7913 71.7253 79.514 71.608C79.2367 71.4907 78.922 71.432 78.57 71.432C78.186 71.432 77.8287 71.5333 77.498 71.736C77.178 71.928 76.922 72.1947 76.73 72.536C76.5487 72.8773 76.458 73.2613 76.458 73.688C76.458 74.0933 76.554 74.472 76.746 74.824C76.938 75.1653 77.2047 75.4373 77.546 75.64C77.8873 75.832 78.2767 75.928 78.714 75.928C79.002 75.928 79.2633 75.8853 79.498 75.8C79.7433 75.7147 79.962 75.5973 80.154 75.448L80.922 76.392ZM85.9149 77.16C85.1575 77.16 84.5069 77.0107 83.9629 76.712C83.4189 76.4027 82.9975 75.9867 82.6989 75.464C82.4109 74.9307 82.2669 74.3227 82.2669 73.64C82.2669 72.9893 82.4322 72.3973 82.7629 71.864C83.0935 71.3307 83.5362 70.904 84.0909 70.584C84.6455 70.264 85.2642 70.104 85.9469 70.104C86.8215 70.104 87.5469 70.36 88.1229 70.872C88.6989 71.384 89.0882 72.088 89.2909 72.984L83.8349 74.904L83.4829 74.024L87.9629 72.392L87.6429 72.6C87.5149 72.248 87.3015 71.944 87.0029 71.688C86.7042 71.4213 86.3149 71.288 85.8349 71.288C85.4295 71.288 85.0669 71.3893 84.7469 71.592C84.4269 71.784 84.1762 72.0507 83.9949 72.392C83.8135 72.7333 83.7229 73.1227 83.7229 73.56C83.7229 74.0187 83.8189 74.424 84.0109 74.776C84.2029 75.1173 84.4642 75.3893 84.7949 75.592C85.1362 75.784 85.5202 75.88 85.9469 75.88C86.2349 75.88 86.5122 75.8267 86.7789 75.72C87.0562 75.6133 87.3122 75.4747 87.5469 75.304L88.2349 76.408C87.9042 76.632 87.5309 76.8133 87.1149 76.952C86.7095 77.0907 86.3095 77.16 85.9149 77.16Z" fill="white"/>
<path d="M138.624 70.376L138.752 71.992L138.688 71.736C138.901 71.2453 139.248 70.856 139.728 70.568C140.208 70.2693 140.763 70.12 141.392 70.12C142.021 70.12 142.533 70.3067 142.928 70.68C143.333 71.0427 143.541 71.5173 143.552 72.104V77H142.048V72.632C142.037 72.2693 141.931 71.976 141.728 71.752C141.536 71.5173 141.232 71.4 140.816 71.4C140.432 71.4 140.085 71.5067 139.776 71.72C139.467 71.9333 139.221 72.2267 139.04 72.6C138.869 72.9733 138.784 73.4053 138.784 73.896V77H137.296V70.376H138.624ZM145.564 73.624C145.564 72.9627 145.718 72.3653 146.028 71.832C146.348 71.2987 146.785 70.8773 147.34 70.568C147.894 70.2587 148.524 70.104 149.228 70.104C149.953 70.104 150.588 70.2587 151.132 70.568C151.676 70.8773 152.097 71.2987 152.396 71.832C152.694 72.3653 152.844 72.9627 152.844 73.624C152.844 74.2853 152.694 74.888 152.396 75.432C152.097 75.9653 151.67 76.3867 151.116 76.696C150.572 77.0053 149.937 77.16 149.212 77.16C148.508 77.16 147.878 77.016 147.324 76.728C146.78 76.4293 146.348 76.0187 146.028 75.496C145.718 74.9627 145.564 74.3387 145.564 73.624ZM147.052 73.64C147.052 74.0667 147.148 74.456 147.34 74.808C147.532 75.1493 147.788 75.4213 148.108 75.624C148.438 75.8267 148.801 75.928 149.196 75.928C149.612 75.928 149.98 75.8267 150.3 75.624C150.63 75.4213 150.886 75.1493 151.068 74.808C151.249 74.456 151.34 74.0667 151.34 73.64C151.34 73.2133 151.249 72.8293 151.068 72.488C150.886 72.136 150.63 71.8587 150.3 71.656C149.98 71.4427 149.612 71.336 149.196 71.336C148.79 71.336 148.422 71.4427 148.092 71.656C147.772 71.8693 147.516 72.152 147.324 72.504C147.142 72.8453 147.052 73.224 147.052 73.64ZM164.161 70.376L166.113 74.84L165.825 74.872L167.649 70.376H169.105L166.065 77.4L163.937 72.856L162.001 77.4L158.929 70.376H160.385L162.449 75.048L161.937 74.952L163.409 71.528L162.881 70.376H164.161ZM170.702 70.376H172.19V77H170.702V70.376ZM170.59 67.976C170.59 67.7413 170.681 67.544 170.862 67.384C171.054 67.224 171.262 67.144 171.486 67.144C171.71 67.144 171.908 67.224 172.078 67.384C172.26 67.544 172.35 67.7413 172.35 67.976C172.35 68.2213 172.26 68.424 172.078 68.584C171.908 68.7333 171.71 68.808 171.486 68.808C171.262 68.808 171.054 68.728 170.862 68.568C170.681 68.408 170.59 68.2107 170.59 67.976ZM174.317 72.904H177.309V74.216H174.317V72.904ZM180.168 77V71.704H179.032V70.376H180.168V67.576C180.168 66.616 180.381 65.88 180.808 65.368C181.245 64.856 181.885 64.6 182.728 64.6C182.952 64.6 183.197 64.632 183.464 64.696C183.741 64.76 183.981 64.8667 184.184 65.016L183.56 66.088C183.464 65.992 183.357 65.928 183.24 65.896C183.133 65.8533 183.016 65.832 182.888 65.832C182.493 65.832 182.189 65.9653 181.976 66.232C181.763 66.4987 181.656 66.952 181.656 67.592V70.376H183.544V71.704H181.656V77H180.168ZM184.824 70.376H186.312V77H184.824V70.376ZM184.712 67.976C184.712 67.7413 184.808 67.5493 185 67.4C185.192 67.24 185.4 67.16 185.624 67.16C185.837 67.16 186.035 67.24 186.216 67.4C186.397 67.5493 186.488 67.7467 186.488 67.992C186.488 68.2373 186.397 68.44 186.216 68.6C186.035 68.7493 185.837 68.824 185.624 68.824C185.4 68.824 185.192 68.744 185 68.584C184.808 68.424 184.712 68.2213 184.712 67.976Z" fill="white"/>
<path d="M239.848 66.472H242.6V77H241.048V67.96H239.848V66.472ZM254.528 77.16C254.027 77.16 253.541 77.0427 253.072 76.808C252.613 76.5733 252.256 76.2587 252 75.864L252.096 75.4V80.184H250.624V70.28H251.904L252.112 71.976L251.952 71.512C252.272 71.1067 252.677 70.7707 253.168 70.504C253.659 70.2373 254.208 70.104 254.816 70.104C255.435 70.104 255.989 70.2533 256.48 70.552C256.981 70.8507 257.376 71.2667 257.664 71.8C257.952 72.3333 258.096 72.9573 258.096 73.672C258.096 74.3867 257.941 75.0053 257.632 75.528C257.323 76.0507 256.896 76.456 256.352 76.744C255.819 77.0213 255.211 77.16 254.528 77.16ZM254.24 75.976C254.667 75.976 255.056 75.88 255.408 75.688C255.771 75.4853 256.059 75.2133 256.272 74.872C256.485 74.52 256.592 74.1253 256.592 73.688C256.592 73.24 256.491 72.8453 256.288 72.504C256.085 72.152 255.813 71.8747 255.472 71.672C255.141 71.4693 254.768 71.368 254.352 71.368C253.968 71.368 253.621 71.4427 253.312 71.592C253.003 71.7413 252.747 71.9493 252.544 72.216C252.341 72.472 252.197 72.7707 252.112 73.112V74.216C252.165 74.5573 252.293 74.8613 252.496 75.128C252.699 75.3947 252.949 75.6027 253.248 75.752C253.557 75.9013 253.888 75.976 254.24 75.976ZM263.181 77.16C262.423 77.16 261.773 77.0107 261.229 76.712C260.685 76.4027 260.263 75.9867 259.965 75.464C259.677 74.9307 259.533 74.3227 259.533 73.64C259.533 72.9893 259.698 72.3973 260.029 71.864C260.359 71.3307 260.802 70.904 261.357 70.584C261.911 70.264 262.53 70.104 263.213 70.104C264.087 70.104 264.813 70.36 265.389 70.872C265.965 71.384 266.354 72.088 266.557 72.984L261.101 74.904L260.749 74.024L265.229 72.392L264.909 72.6C264.781 72.248 264.567 71.944 264.269 71.688C263.97 71.4213 263.581 71.288 263.101 71.288C262.695 71.288 262.333 71.3893 262.013 71.592C261.693 71.784 261.442 72.0507 261.261 72.392C261.079 72.7333 260.989 73.1227 260.989 73.56C260.989 74.0187 261.085 74.424 261.277 74.776C261.469 75.1173 261.73 75.3893 262.061 75.592C262.402 75.784 262.786 75.88 263.213 75.88C263.501 75.88 263.778 75.8267 264.045 75.72C264.322 75.6133 264.578 75.4747 264.813 75.304L265.501 76.408C265.17 76.632 264.797 76.8133 264.381 76.952C263.975 77.0907 263.575 77.16 263.181 77.16ZM269.749 70.376L269.893 72.296L269.813 72.04C269.984 71.6347 270.229 71.2933 270.549 71.016C270.88 70.728 271.221 70.5093 271.573 70.36C271.936 70.2 272.25 70.12 272.517 70.12L272.437 71.592C271.936 71.56 271.493 71.656 271.109 71.88C270.736 72.104 270.437 72.4027 270.213 72.776C270 73.1493 269.893 73.5493 269.893 73.976V77H268.421V70.376H269.749ZM276.293 77.128C275.823 77.128 275.365 77.048 274.917 76.888C274.479 76.7173 274.117 76.4667 273.829 76.136L274.453 75.272C274.73 75.5387 275.013 75.7413 275.301 75.88C275.599 76.008 275.893 76.072 276.181 76.072C276.394 76.072 276.591 76.0453 276.773 75.992C276.954 75.9387 277.098 75.8533 277.205 75.736C277.322 75.608 277.381 75.4373 277.381 75.224C277.381 74.9893 277.301 74.8027 277.141 74.664C276.991 74.5253 276.794 74.4133 276.549 74.328C276.314 74.2427 276.063 74.1627 275.797 74.088C275.253 73.9067 274.837 73.656 274.549 73.336C274.261 73.016 274.117 72.6267 274.117 72.168C274.117 71.816 274.202 71.4907 274.373 71.192C274.554 70.8827 274.815 70.632 275.157 70.44C275.509 70.248 275.941 70.152 276.453 70.152C276.911 70.152 277.322 70.2107 277.685 70.328C278.047 70.4347 278.389 70.616 278.709 70.872L278.117 71.8C277.925 71.5973 277.695 71.448 277.429 71.352C277.162 71.256 276.922 71.2027 276.709 71.192C276.527 71.1813 276.351 71.208 276.181 71.272C276.021 71.336 275.887 71.4267 275.781 71.544C275.674 71.6613 275.621 71.8 275.621 71.96C275.621 72.184 275.695 72.3653 275.845 72.504C275.994 72.6427 276.186 72.7547 276.421 72.84C276.666 72.9147 276.906 72.9947 277.141 73.08C277.471 73.176 277.765 73.304 278.021 73.464C278.277 73.624 278.479 73.8213 278.629 74.056C278.789 74.2907 278.869 74.584 278.869 74.936C278.869 75.3307 278.773 75.6987 278.581 76.04C278.399 76.3707 278.117 76.6373 277.733 76.84C277.359 77.032 276.879 77.128 276.293 77.128ZM280.376 73.624C280.376 72.9627 280.531 72.3653 280.84 71.832C281.16 71.2987 281.598 70.8773 282.152 70.568C282.707 70.2587 283.336 70.104 284.04 70.104C284.766 70.104 285.4 70.2587 285.944 70.568C286.488 70.8773 286.91 71.2987 287.208 71.832C287.507 72.3653 287.656 72.9627 287.656 73.624C287.656 74.2853 287.507 74.888 287.208 75.432C286.91 75.9653 286.483 76.3867 285.928 76.696C285.384 77.0053 284.75 77.16 284.024 77.16C283.32 77.16 282.691 77.016 282.136 76.728C281.592 76.4293 281.16 76.0187 280.84 75.496C280.531 74.9627 280.376 74.3387 280.376 73.624ZM281.864 73.64C281.864 74.0667 281.96 74.456 282.152 74.808C282.344 75.1493 282.6 75.4213 282.92 75.624C283.251 75.8267 283.614 75.928 284.008 75.928C284.424 75.928 284.792 75.8267 285.112 75.624C285.443 75.4213 285.699 75.1493 285.88 74.808C286.062 74.456 286.152 74.0667 286.152 73.64C286.152 73.2133 286.062 72.8293 285.88 72.488C285.699 72.136 285.443 71.8587 285.112 71.656C284.792 71.4427 284.424 71.336 284.008 71.336C283.603 71.336 283.235 71.4427 282.904 71.656C282.584 71.8693 282.328 72.152 282.136 72.504C281.955 72.8453 281.864 73.224 281.864 73.64ZM290.999 70.376L291.127 71.992L291.063 71.736C291.276 71.2453 291.623 70.856 292.103 70.568C292.583 70.2693 293.138 70.12 293.767 70.12C294.396 70.12 294.908 70.3067 295.303 70.68C295.708 71.0427 295.916 71.5173 295.927 72.104V77H294.423V72.632C294.412 72.2693 294.306 71.976 294.103 71.752C293.911 71.5173 293.607 71.4 293.191 71.4C292.807 71.4 292.46 71.5067 292.151 71.72C291.842 71.9333 291.596 72.2267 291.415 72.6C291.244 72.9733 291.159 73.4053 291.159 73.896V77H289.671V70.376H290.999Z" fill="white"/>
<path d="M348.952 77.16C348.365 77.16 347.827 77.016 347.336 76.728C346.845 76.44 346.451 76.04 346.152 75.528C345.864 75.0053 345.72 74.392 345.72 73.688C345.72 72.9627 345.875 72.3333 346.184 71.8C346.504 71.2667 346.925 70.8507 347.448 70.552C347.981 70.2533 348.563 70.104 349.192 70.104C349.789 70.104 350.317 70.2373 350.776 70.504C351.235 70.76 351.603 71.096 351.88 71.512L351.704 71.976V70.28H353.192V80.184H351.72V75.304L351.784 75.928C351.528 76.2907 351.149 76.5893 350.648 76.824C350.147 77.048 349.581 77.16 348.952 77.16ZM349.448 75.976C349.832 75.976 350.184 75.9013 350.504 75.752C350.824 75.6027 351.085 75.4 351.288 75.144C351.501 74.8773 351.64 74.5733 351.704 74.232V73.112C351.619 72.7707 351.475 72.472 351.272 72.216C351.069 71.9493 350.813 71.7413 350.504 71.592C350.195 71.4427 349.843 71.368 349.448 71.368C349.053 71.368 348.685 71.4693 348.344 71.672C348.003 71.8747 347.731 72.152 347.528 72.504C347.325 72.856 347.224 73.2507 347.224 73.688C347.224 74.1253 347.325 74.5147 347.528 74.856C347.731 75.1973 348.003 75.4693 348.344 75.672C348.685 75.8747 349.053 75.976 349.448 75.976ZM357.876 77.256C357.279 77.256 356.783 77.0747 356.388 76.712C356.004 76.3387 355.802 75.8587 355.78 75.272V70.376H357.268V74.744C357.29 75.1067 357.391 75.4 357.572 75.624C357.764 75.848 358.063 75.9653 358.468 75.976C358.842 75.976 359.172 75.8693 359.46 75.656C359.759 75.432 359.999 75.1333 360.18 74.76C360.362 74.376 360.452 73.944 360.452 73.464V70.376H361.94V77H360.58L360.452 75.368L360.532 75.656C360.404 75.9653 360.207 76.2427 359.94 76.488C359.684 76.7227 359.38 76.9093 359.028 77.048C358.676 77.1867 358.292 77.256 357.876 77.256ZM367.587 77.16C366.829 77.16 366.179 77.0107 365.635 76.712C365.091 76.4027 364.669 75.9867 364.371 75.464C364.083 74.9307 363.939 74.3227 363.939 73.64C363.939 72.9893 364.104 72.3973 364.435 71.864C364.765 71.3307 365.208 70.904 365.763 70.584C366.317 70.264 366.936 70.104 367.619 70.104C368.493 70.104 369.219 70.36 369.795 70.872C370.371 71.384 370.76 72.088 370.963 72.984L365.507 74.904L365.155 74.024L369.635 72.392L369.315 72.6C369.187 72.248 368.973 71.944 368.675 71.688C368.376 71.4213 367.987 71.288 367.507 71.288C367.101 71.288 366.739 71.3893 366.419 71.592C366.099 71.784 365.848 72.0507 365.667 72.392C365.485 72.7333 365.395 73.1227 365.395 73.56C365.395 74.0187 365.491 74.424 365.683 74.776C365.875 75.1173 366.136 75.3893 366.467 75.592C366.808 75.784 367.192 75.88 367.619 75.88C367.907 75.88 368.184 75.8267 368.451 75.72C368.728 75.6133 368.984 75.4747 369.219 75.304L369.907 76.408C369.576 76.632 369.203 76.8133 368.787 76.952C368.381 77.0907 367.981 77.16 367.587 77.16ZM375.899 77.16C375.142 77.16 374.491 77.0107 373.947 76.712C373.403 76.4027 372.982 75.9867 372.683 75.464C372.395 74.9307 372.251 74.3227 372.251 73.64C372.251 72.9893 372.417 72.3973 372.747 71.864C373.078 71.3307 373.521 70.904 374.075 70.584C374.63 70.264 375.249 70.104 375.931 70.104C376.806 70.104 377.531 70.36 378.107 70.872C378.683 71.384 379.073 72.088 379.275 72.984L373.819 74.904L373.467 74.024L377.947 72.392L377.627 72.6C377.499 72.248 377.286 71.944 376.987 71.688C376.689 71.4213 376.299 71.288 375.819 71.288C375.414 71.288 375.051 71.3893 374.731 71.592C374.411 71.784 374.161 72.0507 373.979 72.392C373.798 72.7333 373.707 73.1227 373.707 73.56C373.707 74.0187 373.803 74.424 373.995 74.776C374.187 75.1173 374.449 75.3893 374.779 75.592C375.121 75.784 375.505 75.88 375.931 75.88C376.219 75.88 376.497 75.8267 376.763 75.72C377.041 75.6133 377.297 75.4747 377.531 75.304L378.219 76.408C377.889 76.632 377.515 76.8133 377.099 76.952C376.694 77.0907 376.294 77.16 375.899 77.16ZM382.468 70.376L382.596 71.992L382.532 71.736C382.745 71.2453 383.092 70.856 383.572 70.568C384.052 70.2693 384.606 70.12 385.236 70.12C385.865 70.12 386.377 70.3067 386.772 70.68C387.177 71.0427 387.385 71.5173 387.396 72.104V77H385.892V72.632C385.881 72.2693 385.774 71.976 385.572 71.752C385.38 71.5173 385.076 71.4 384.66 71.4C384.276 71.4 383.929 71.5067 383.62 71.72C383.31 71.9333 383.065 72.2267 382.884 72.6C382.713 72.9733 382.628 73.4053 382.628 73.896V77H381.14V70.376H382.468ZM396.902 77.128C396.433 77.128 395.974 77.048 395.526 76.888C395.089 76.7173 394.726 76.4667 394.438 76.136L395.062 75.272C395.339 75.5387 395.622 75.7413 395.91 75.88C396.209 76.008 396.502 76.072 396.79 76.072C397.003 76.072 397.201 76.0453 397.382 75.992C397.563 75.9387 397.707 75.8533 397.814 75.736C397.931 75.608 397.99 75.4373 397.99 75.224C397.99 74.9893 397.91 74.8027 397.75 74.664C397.601 74.5253 397.403 74.4133 397.158 74.328C396.923 74.2427 396.673 74.1627 396.406 74.088C395.862 73.9067 395.446 73.656 395.158 73.336C394.87 73.016 394.726 72.6267 394.726 72.168C394.726 71.816 394.811 71.4907 394.982 71.192C395.163 70.8827 395.425 70.632 395.766 70.44C396.118 70.248 396.55 70.152 397.062 70.152C397.521 70.152 397.931 70.2107 398.294 70.328C398.657 70.4347 398.998 70.616 399.318 70.872L398.726 71.8C398.534 71.5973 398.305 71.448 398.038 71.352C397.771 71.256 397.531 71.2027 397.318 71.192C397.137 71.1813 396.961 71.208 396.79 71.272C396.63 71.336 396.497 71.4267 396.39 71.544C396.283 71.6613 396.23 71.8 396.23 71.96C396.23 72.184 396.305 72.3653 396.454 72.504C396.603 72.6427 396.795 72.7547 397.03 72.84C397.275 72.9147 397.515 72.9947 397.75 73.08C398.081 73.176 398.374 73.304 398.63 73.464C398.886 73.624 399.089 73.8213 399.238 74.056C399.398 74.2907 399.478 74.584 399.478 74.936C399.478 75.3307 399.382 75.6987 399.19 76.04C399.009 76.3707 398.726 76.6373 398.342 76.84C397.969 77.032 397.489 77.128 396.902 77.128ZM401.562 70.376H403.05V77H401.562V70.376ZM401.45 67.976C401.45 67.7413 401.54 67.544 401.722 67.384C401.914 67.224 402.122 67.144 402.346 67.144C402.57 67.144 402.767 67.224 402.938 67.384C403.119 67.544 403.21 67.7413 403.21 67.976C403.21 68.2213 403.119 68.424 402.938 68.584C402.767 68.7333 402.57 68.808 402.346 68.808C402.122 68.808 401.914 68.728 401.722 68.568C401.54 68.408 401.45 68.2107 401.45 67.976ZM406.232 71.592C405.901 71.592 405.619 71.4907 405.384 71.288C405.149 71.0853 405.032 70.7813 405.032 70.376V69.752H406.168V69.96C406.168 70.1307 406.211 70.2427 406.296 70.296C406.381 70.3493 406.52 70.376 406.712 70.376H410.952L406.984 76.088L406.696 75.768H410.904V77H404.776L408.824 71.176L409.08 71.592H406.232ZM416.102 77.16C415.345 77.16 414.694 77.0107 414.15 76.712C413.606 76.4027 413.185 75.9867 412.886 75.464C412.598 74.9307 412.454 74.3227 412.454 73.64C412.454 72.9893 412.62 72.3973 412.95 71.864C413.281 71.3307 413.724 70.904 414.278 70.584C414.833 70.264 415.452 70.104 416.134 70.104C417.009 70.104 417.734 70.36 418.31 70.872C418.886 71.384 419.276 72.088 419.478 72.984L414.022 74.904L413.67 74.024L418.15 72.392L417.83 72.6C417.702 72.248 417.489 71.944 417.19 71.688C416.892 71.4213 416.502 71.288 416.022 71.288C415.617 71.288 415.254 71.3893 414.934 71.592C414.614 71.784 414.364 72.0507 414.182 72.392C414.001 72.7333 413.91 73.1227 413.91 73.56C413.91 74.0187 414.006 74.424 414.198 74.776C414.39 75.1173 414.652 75.3893 414.982 75.592C415.324 75.784 415.708 75.88 416.134 75.88C416.422 75.88 416.7 75.8267 416.966 75.72C417.244 75.6133 417.5 75.4747 417.734 75.304L418.422 76.408C418.092 76.632 417.718 76.8133 417.302 76.952C416.897 77.0907 416.497 77.16 416.102 77.16Z" fill="white"/>
<path d="M473.384 77.128C472.68 77.128 472.04 76.9627 471.464 76.632C470.899 76.2907 470.445 75.8107 470.104 75.192C469.773 74.5627 469.608 73.8213 469.608 72.968C469.608 72.2747 469.741 71.6187 470.008 71C470.285 70.3707 470.653 69.784 471.112 69.24C471.571 68.6853 472.088 68.1733 472.664 67.704C473.251 67.224 473.848 66.7867 474.456 66.392L475.48 67.512C474.616 67.9387 473.891 68.424 473.304 68.968C472.717 69.5013 472.264 70.0453 471.944 70.6C471.624 71.1547 471.432 71.6773 471.368 72.168L470.984 72.12C471.272 71.5227 471.651 71.064 472.12 70.744C472.589 70.424 473.181 70.264 473.896 70.264C474.44 70.264 474.952 70.408 475.432 70.696C475.912 70.984 476.301 71.3787 476.6 71.88C476.909 72.3813 477.064 72.9573 477.064 73.608C477.064 74.3227 476.888 74.9467 476.536 75.48C476.195 76.0027 475.741 76.408 475.176 76.696C474.621 76.984 474.024 77.128 473.384 77.128ZM473.32 75.736C473.715 75.736 474.072 75.6507 474.392 75.48C474.723 75.2987 474.984 75.048 475.176 74.728C475.368 74.408 475.464 74.04 475.464 73.624C475.464 73.208 475.368 72.8453 475.176 72.536C474.984 72.2267 474.723 71.9867 474.392 71.816C474.072 71.6453 473.715 71.56 473.32 71.56C472.925 71.56 472.568 71.6453 472.248 71.816C471.928 71.976 471.672 72.2 471.48 72.488C471.288 72.7653 471.192 73.0747 471.192 73.416V73.688C471.192 74.0507 471.283 74.392 471.464 74.712C471.656 75.0213 471.912 75.272 472.232 75.464C472.563 75.6453 472.925 75.736 473.32 75.736ZM481.639 77.128C481.073 77.128 480.529 77.0267 480.007 76.824C479.495 76.6213 479.079 76.36 478.759 76.04L479.591 74.84C479.804 75.0853 480.087 75.2827 480.439 75.432C480.801 75.5813 481.159 75.656 481.511 75.656C481.905 75.656 482.252 75.5707 482.551 75.4C482.86 75.2187 483.1 74.9787 483.271 74.68C483.441 74.3707 483.527 74.0187 483.527 73.624C483.527 73.1973 483.447 72.8187 483.287 72.488C483.137 72.1573 482.908 71.9013 482.599 71.72C482.3 71.528 481.921 71.432 481.463 71.432C481.089 71.432 480.743 71.4853 480.423 71.592C480.103 71.688 479.772 71.8373 479.431 72.04H479.415V66.472H484.455V67.96H480.759V70.648L480.551 70.328C480.732 70.264 480.935 70.216 481.159 70.184C481.393 70.1413 481.617 70.12 481.831 70.12C482.545 70.12 483.143 70.28 483.623 70.6C484.113 70.9093 484.481 71.3253 484.727 71.848C484.983 72.3707 485.111 72.9467 485.111 73.576C485.111 74.2373 484.961 74.84 484.663 75.384C484.364 75.9173 483.953 76.344 483.431 76.664C482.908 76.9733 482.311 77.128 481.639 77.128ZM493.78 70.376L493.908 71.864L493.844 71.736C494.09 71.2347 494.436 70.84 494.884 70.552C495.343 70.264 495.866 70.12 496.452 70.12C496.826 70.12 497.156 70.1787 497.444 70.296C497.732 70.4133 497.967 70.584 498.148 70.808C498.34 71.0213 498.463 71.288 498.516 71.608L498.436 71.656C498.692 71.176 499.044 70.8027 499.492 70.536C499.951 70.2587 500.431 70.12 500.932 70.12C501.583 70.12 502.095 70.3067 502.468 70.68C502.852 71.0427 503.05 71.5173 503.06 72.104V77H501.572V72.632C501.562 72.2907 501.476 72.008 501.316 71.784C501.167 71.5493 500.9 71.4213 500.516 71.4C500.132 71.4 499.786 71.5173 499.476 71.752C499.178 71.9867 498.943 72.2907 498.772 72.664C498.602 73.0267 498.511 73.4213 498.5 73.848V77H497.012V72.632C497.002 72.2907 496.911 72.008 496.74 71.784C496.58 71.5493 496.308 71.4213 495.924 71.4C495.53 71.4 495.183 71.5173 494.884 71.752C494.586 71.9867 494.351 72.2907 494.18 72.664C494.02 73.0373 493.94 73.4373 493.94 73.864V77H492.452V70.376H493.78ZM505.207 77C505.89 76.3387 506.541 75.688 507.159 75.048C507.778 74.408 508.333 73.7893 508.823 73.192C509.325 72.5947 509.719 72.0187 510.007 71.464C510.295 70.8987 510.439 70.3547 510.439 69.832C510.439 69.48 510.381 69.1813 510.263 68.936C510.146 68.68 509.991 68.472 509.799 68.312C509.618 68.152 509.41 68.0347 509.175 67.96C508.941 67.8747 508.701 67.832 508.455 67.832C508.103 67.832 507.805 67.8907 507.559 68.008C507.314 68.1147 507.111 68.2587 506.951 68.44C506.802 68.6213 506.69 68.8133 506.615 69.016C506.551 69.2187 506.519 69.4213 506.519 69.624C506.519 69.976 506.573 70.296 506.679 70.584C506.786 70.8613 506.941 71.1067 507.143 71.32L506.183 72.168C505.938 72.008 505.725 71.784 505.543 71.496C505.373 71.208 505.239 70.8987 505.143 70.568C505.058 70.2267 505.015 69.9227 505.015 69.656C505.015 69.08 505.154 68.5413 505.431 68.04C505.719 67.528 506.135 67.1173 506.679 66.808C507.234 66.4987 507.906 66.344 508.695 66.344C509.367 66.344 509.954 66.4987 510.455 66.808C510.957 67.1173 511.346 67.528 511.623 68.04C511.901 68.5413 512.039 69.096 512.039 69.704C512.039 70.2373 511.933 70.76 511.719 71.272C511.506 71.784 511.218 72.2907 510.855 72.792C510.503 73.2933 510.109 73.7893 509.671 74.28C509.245 74.76 508.818 75.2453 508.391 75.736L507.719 75.512H512.391V77H505.207Z" fill="white"/>
<path d="M568.152 75.128C567.683 75.128 567.224 75.048 566.776 74.888C566.339 74.7173 565.976 74.4667 565.688 74.136L566.312 73.272C566.589 73.5387 566.872 73.7413 567.16 73.88C567.459 74.008 567.752 74.072 568.04 74.072C568.253 74.072 568.451 74.0453 568.632 73.992C568.813 73.9387 568.957 73.8533 569.064 73.736C569.181 73.608 569.24 73.4373 569.24 73.224C569.24 72.9893 569.16 72.8027 569 72.664C568.851 72.5253 568.653 72.4133 568.408 72.328C568.173 72.2427 567.923 72.1627 567.656 72.088C567.112 71.9067 566.696 71.656 566.408 71.336C566.12 71.016 565.976 70.6267 565.976 70.168C565.976 69.816 566.061 69.4907 566.232 69.192C566.413 68.8827 566.675 68.632 567.016 68.44C567.368 68.248 567.8 68.152 568.312 68.152C568.771 68.152 569.181 68.2107 569.544 68.328C569.907 68.4347 570.248 68.616 570.568 68.872L569.976 69.8C569.784 69.5973 569.555 69.448 569.288 69.352C569.021 69.256 568.781 69.2027 568.568 69.192C568.387 69.1813 568.211 69.208 568.04 69.272C567.88 69.336 567.747 69.4267 567.64 69.544C567.533 69.6613 567.48 69.8 567.48 69.96C567.48 70.184 567.555 70.3653 567.704 70.504C567.853 70.6427 568.045 70.7547 568.28 70.84C568.525 70.9147 568.765 70.9947 569 71.08C569.331 71.176 569.624 71.304 569.88 71.464C570.136 71.624 570.339 71.8213 570.488 72.056C570.648 72.2907 570.728 72.584 570.728 72.936C570.728 73.3307 570.632 73.6987 570.44 74.04C570.259 74.3707 569.976 74.6373 569.592 74.84C569.219 75.032 568.739 75.128 568.152 75.128ZM575.564 75.16C574.945 75.16 574.38 75.0267 573.868 74.76C573.366 74.4933 572.966 74.104 572.668 73.592C572.38 73.0693 572.236 72.4347 572.236 71.688C572.236 70.952 572.39 70.3173 572.7 69.784C573.009 69.24 573.42 68.824 573.932 68.536C574.454 68.248 575.025 68.104 575.644 68.104C576.262 68.104 576.785 68.248 577.212 68.536C577.638 68.8133 577.964 69.144 578.188 69.528L578.092 69.784L578.236 68.376H579.612V75H578.124V73.272L578.284 73.656C578.241 73.7627 578.145 73.9013 577.996 74.072C577.857 74.232 577.665 74.3973 577.42 74.568C577.185 74.7387 576.913 74.8827 576.604 75C576.294 75.1067 575.948 75.16 575.564 75.16ZM575.964 73.928C576.337 73.928 576.673 73.8587 576.972 73.72C577.27 73.5813 577.516 73.3893 577.708 73.144C577.91 72.888 578.049 72.584 578.124 72.232V70.936C578.038 70.616 577.889 70.3387 577.676 70.104C577.462 69.8587 577.206 69.672 576.908 69.544C576.609 69.4053 576.278 69.336 575.916 69.336C575.521 69.336 575.158 69.432 574.828 69.624C574.497 69.816 574.23 70.0827 574.028 70.424C573.836 70.7653 573.74 71.1653 573.74 71.624C573.74 72.0507 573.841 72.44 574.044 72.792C574.246 73.144 574.518 73.4213 574.86 73.624C575.201 73.8267 575.569 73.928 575.964 73.928ZM582.827 65.464H584.315V68.408H586.139V69.576H584.315V75H582.827V69.576H581.611V68.408H582.827V65.464ZM591.009 75.16C590.251 75.16 589.601 75.0107 589.057 74.712C588.513 74.4027 588.091 73.9867 587.793 73.464C587.505 72.9307 587.361 72.3227 587.361 71.64C587.361 70.9893 587.526 70.3973 587.857 69.864C588.187 69.3307 588.63 68.904 589.185 68.584C589.739 68.264 590.358 68.104 591.041 68.104C591.915 68.104 592.641 68.36 593.217 68.872C593.793 69.384 594.182 70.088 594.385 70.984L588.929 72.904L588.577 72.024L593.057 70.392L592.737 70.6C592.609 70.248 592.395 69.944 592.097 69.688C591.798 69.4213 591.409 69.288 590.929 69.288C590.523 69.288 590.161 69.3893 589.841 69.592C589.521 69.784 589.27 70.0507 589.089 70.392C588.907 70.7333 588.817 71.1227 588.817 71.56C588.817 72.0187 588.913 72.424 589.105 72.776C589.297 73.1173 589.558 73.3893 589.889 73.592C590.23 73.784 590.614 73.88 591.041 73.88C591.329 73.88 591.606 73.8267 591.873 73.72C592.15 73.6133 592.406 73.4747 592.641 73.304L593.329 74.408C592.998 74.632 592.625 74.8133 592.209 74.952C591.803 75.0907 591.403 75.16 591.009 75.16ZM596.249 62.616H597.737V75H596.249V62.616ZM600.312 68.376H601.8V75H600.312V68.376ZM600.2 65.976C600.2 65.7413 600.29 65.544 600.472 65.384C600.664 65.224 600.872 65.144 601.096 65.144C601.32 65.144 601.517 65.224 601.688 65.384C601.869 65.544 601.96 65.7413 601.96 65.976C601.96 66.2213 601.869 66.424 601.688 66.584C601.517 66.7333 601.32 66.808 601.096 66.808C600.872 66.808 600.664 66.728 600.472 66.568C600.29 66.408 600.2 66.2107 600.2 65.976ZM605.014 65.464H606.502V68.408H608.326V69.576H606.502V75H605.014V69.576H603.798V68.408H605.014V65.464ZM613.196 75.16C612.439 75.16 611.788 75.0107 611.244 74.712C610.7 74.4027 610.279 73.9867 609.98 73.464C609.692 72.9307 609.548 72.3227 609.548 71.64C609.548 70.9893 609.713 70.3973 610.044 69.864C610.375 69.3307 610.817 68.904 611.372 68.584C611.927 68.264 612.545 68.104 613.228 68.104C614.103 68.104 614.828 68.36 615.404 68.872C615.98 69.384 616.369 70.088 616.572 70.984L611.116 72.904L610.764 72.024L615.244 70.392L614.924 70.6C614.796 70.248 614.583 69.944 614.284 69.688C613.985 69.4213 613.596 69.288 613.116 69.288C612.711 69.288 612.348 69.3893 612.028 69.592C611.708 69.784 611.457 70.0507 611.276 70.392C611.095 70.7333 611.004 71.1227 611.004 71.56C611.004 72.0187 611.1 72.424 611.292 72.776C611.484 73.1173 611.745 73.3893 612.076 73.592C612.417 73.784 612.801 73.88 613.228 73.88C613.516 73.88 613.793 73.8267 614.06 73.72C614.337 73.6133 614.593 73.4747 614.828 73.304L615.516 74.408C615.185 74.632 614.812 74.8133 614.396 74.952C613.991 75.0907 613.591 75.16 613.196 75.16ZM623.019 63.432H630.699V64.92H627.595V75H626.043V64.92H623.019V63.432ZM633.996 63.432L637.804 73L636.924 72.824L640.54 63.432H642.348L637.244 75.528L632.156 63.432H633.996Z" fill="white"/>
<defs>
<clipPath id="clip0_145_243">
<rect width="40" height="40" fill="white" transform="translate(138)"/>
</clipPath>
</defs>
</svg>
