<svg width="303" height="283" viewBox="0 0 303 283" fill="none" xmlns="http://www.w3.org/2000/svg">
<path d="M24.974 170.258C24.81 170.546 24.644 170.825 24.484 171.09C24.3163 171.377 24.0878 171.61 23.8198 171.769C23.5519 171.928 23.2532 172.006 22.9515 171.997C22.6499 171.988 22.3551 171.892 22.0946 171.718C21.8342 171.544 21.6166 171.297 21.462 171.001C21.3033 170.737 21.1473 170.47 20.994 170.201C19.994 168.462 19 166.405 19 165.143C19 163.93 19.4214 162.768 20.1716 161.91C20.9217 161.053 21.9391 160.571 23 160.571C24.0609 160.571 25.0783 161.053 25.8284 161.91C26.5786 162.768 27 163.93 27 165.143C27 166.402 26.004 168.457 25.008 170.203L24.974 170.258ZM25 165.143C25 164.537 24.7893 163.955 24.4142 163.527C24.0391 163.098 23.5304 162.857 23 162.857C22.4696 162.857 21.9609 163.098 21.5858 163.527C21.2107 163.955 21 164.537 21 165.143C21 165.749 21.2107 166.33 21.5858 166.759C21.9609 167.188 22.4696 167.429 23 167.429C23.5304 167.429 24.0391 167.188 24.4142 166.759C24.7893 166.33 25 165.749 25 165.143ZM19.87 172.389C19.6964 172.102 19.5257 171.813 19.358 171.522L8.648 184.416C7.58951 185.691 6.99959 187.381 7 189.138V192.571C7 193.784 7.42143 194.947 8.17157 195.804C8.92172 196.661 9.93913 197.143 11 197.143H35C36.0609 197.143 37.0783 196.661 37.8284 195.804C38.5786 194.947 39 193.784 39 192.571V189.138C39.0004 187.381 38.4105 185.691 37.352 184.416L26.642 171.525C26.468 171.826 26.296 172.117 26.13 172.389C25.91 172.754 25.656 173.063 25.378 173.321L29.914 178.784C27.384 178.955 25.318 180.025 23.522 180.955C23.038 181.207 22.572 181.447 22.122 181.657C20.802 182.274 19.594 182.663 18.29 182.555C17.176 182.464 15.906 182.007 14.37 180.848L20.62 173.321C20.3317 173.053 20.0784 172.739 19.868 172.389M12.972 182.53C14.852 184.014 16.538 184.706 18.146 184.837C19.904 184.981 21.446 184.441 22.876 183.771C23.43 183.513 23.966 183.239 24.496 182.969C26.756 181.81 28.898 180.713 31.864 181.131L35.9 185.991C36.606 186.84 36.9997 187.967 37 189.138V192.571C37 193.178 36.7893 193.759 36.4142 194.188C36.0391 194.616 35.5304 194.857 35 194.857H11C10.4696 194.857 9.96086 194.616 9.58579 194.188C9.21071 193.759 9 193.178 9 192.571V189.138C9.00026 187.967 9.39401 186.84 10.1 185.991L12.972 182.53Z" fill="white"/>
<path d="M26.6667 92.7619C27.5507 92.7619 28.3986 92.3606 29.0237 91.6461C29.6488 90.9317 30 89.9628 30 88.9524C30 87.9421 29.6488 86.9731 29.0237 86.2587C28.3986 85.5442 27.5507 85.1429 26.6667 85.1429C25.7826 85.1429 24.9348 85.5442 24.3096 86.2587C23.6845 86.9731 23.3333 87.9421 23.3333 88.9524C23.3333 89.9628 23.6845 90.9317 24.3096 91.6461C24.9348 92.3606 25.7826 92.7619 26.6667 92.7619ZM26.6667 92.7619V111.81C26.6667 123.238 10 123.238 10 111.81V104.191L13.3333 108" stroke="white" stroke-width="2" stroke-linecap="round" stroke-linejoin="round"/>
<path d="M13.8333 12.9524L32.1666 33.9047M13.8333 24.3809L22.1666 33.9047M23.8333 12.9524L32.1666 22.4762M13.6899 12.7886C14.3148 12.0742 14.6659 11.1054 14.6659 10.0952C14.6659 9.08508 14.3148 8.11628 13.6899 7.40189L11.3333 4.70856L6.61992 10.0952L8.97659 12.7886C9.60168 13.5027 10.4494 13.9039 11.3333 13.9039C12.2171 13.9039 13.0648 13.5027 13.6899 12.7886ZM32.3099 34.0686C31.685 34.783 31.334 35.7517 31.334 36.7619C31.334 37.772 31.685 38.7408 32.3099 39.4552L34.6666 42.1486L39.3799 36.7619L37.0233 34.0686C36.3982 33.3544 35.5505 32.9532 34.6666 32.9532C33.7827 32.9532 32.935 33.3544 32.3099 34.0686ZM39.6666 5.33332C23.0283 10.2876 10.2883 20.48 6.33325 42.4762C22.9716 37.5219 35.7116 27.3295 39.6666 5.33332Z" stroke="white" stroke-width="1.66667" stroke-linecap="round" stroke-linejoin="round"/>
<path d="M87.232 23.9451L87.184 24.5211L87.392 24.2331L92.128 19.2891H94.128L89.344 24.2491L94.4 30.8571H92.432L88.208 25.2411L87.232 26.1851V30.8571H85.664V19.2891H87.232V23.9451ZM98.7043 31.0171C98.0856 31.0171 97.5203 30.8838 97.0082 30.6171C96.5069 30.3504 96.1069 29.9611 95.8083 29.4491C95.5203 28.9264 95.3763 28.2918 95.3763 27.5451C95.3763 26.8091 95.5309 26.1744 95.8403 25.6411C96.1496 25.0971 96.5603 24.6811 97.0723 24.3931C97.5949 24.1051 98.1656 23.9611 98.7843 23.9611C99.4029 23.9611 99.9256 24.1051 100.352 24.3931C100.779 24.6704 101.104 25.0011 101.328 25.3851L101.232 25.6411L101.376 24.2331H102.752V30.8571H101.264V29.1291L101.424 29.5131C101.382 29.6198 101.286 29.7585 101.136 29.9291C100.998 30.0891 100.806 30.2545 100.56 30.4251C100.326 30.5958 100.054 30.7398 99.7443 30.8571C99.4349 30.9638 99.0883 31.0171 98.7043 31.0171ZM99.1043 29.7851C99.4776 29.7851 99.8136 29.7158 100.112 29.5771C100.411 29.4384 100.656 29.2464 100.848 29.0011C101.051 28.7451 101.19 28.4411 101.264 28.0891V26.7931C101.179 26.4731 101.03 26.1958 100.816 25.9611C100.603 25.7158 100.347 25.5291 100.048 25.4011C99.7496 25.2624 99.4189 25.1931 99.0563 25.1931C98.6616 25.1931 98.2989 25.2891 97.9683 25.4811C97.6376 25.6731 97.3709 25.9398 97.1683 26.2811C96.9763 26.6224 96.8803 27.0224 96.8803 27.4811C96.8803 27.9078 96.9816 28.2971 97.1843 28.6491C97.3869 29.0011 97.6589 29.2784 98.0003 29.4811C98.3416 29.6838 98.7096 29.7851 99.1043 29.7851ZM105.887 34.0411L110.255 24.2331H111.631L107.359 34.0411H105.887ZM107.519 30.9051L104.335 24.2331H106.015L108.687 30.1531L107.519 30.9051ZM115.782 31.0171C115.164 31.0171 114.598 30.8838 114.086 30.6171C113.585 30.3504 113.185 29.9611 112.886 29.4491C112.598 28.9264 112.454 28.2918 112.454 27.5451C112.454 26.8091 112.609 26.1744 112.918 25.6411C113.228 25.0971 113.638 24.6811 114.15 24.3931C114.673 24.1051 115.244 23.9611 115.862 23.9611C116.481 23.9611 117.004 24.1051 117.43 24.3931C117.857 24.6704 118.182 25.0011 118.406 25.3851L118.31 25.6411L118.454 24.2331H119.83V30.8571H118.342V29.1291L118.502 29.5131C118.46 29.6198 118.364 29.7585 118.214 29.9291C118.076 30.0891 117.884 30.2545 117.638 30.4251C117.404 30.5958 117.132 30.7398 116.822 30.8571C116.513 30.9638 116.166 31.0171 115.782 31.0171ZM116.182 29.7851C116.556 29.7851 116.892 29.7158 117.19 29.5771C117.489 29.4384 117.734 29.2464 117.926 29.0011C118.129 28.7451 118.268 28.4411 118.342 28.0891V26.7931C118.257 26.4731 118.108 26.1958 117.894 25.9611C117.681 25.7158 117.425 25.5291 117.126 25.4011C116.828 25.2624 116.497 25.1931 116.134 25.1931C115.74 25.1931 115.377 25.2891 115.046 25.4811C114.716 25.6731 114.449 25.9398 114.246 26.2811C114.054 26.6224 113.958 27.0224 113.958 27.4811C113.958 27.9078 114.06 28.2971 114.262 28.6491C114.465 29.0011 114.737 29.2784 115.078 29.4811C115.42 29.6838 115.788 29.7851 116.182 29.7851ZM122.405 30.8571V18.4731H123.893V30.8571H122.405ZM125.493 26.4571L128.533 30.8571H126.789L124.501 27.2891L125.493 26.4571ZM123.429 28.7451L123.285 27.3211L127.301 24.0891L128.213 24.8731L123.429 28.7451Z" fill="white"/>
<path d="M85.664 102.718H92.528V104.206H87.216V107.902H91.872V109.374H87.216V114.286H85.664V102.718ZM94.4366 107.662H95.9246V114.286H94.4366V107.662ZM94.3246 105.262C94.3246 105.027 94.4153 104.83 94.5966 104.67C94.7886 104.51 94.9966 104.43 95.2206 104.43C95.4446 104.43 95.642 104.51 95.8126 104.67C95.994 104.83 96.0846 105.027 96.0846 105.262C96.0846 105.507 95.994 105.71 95.8126 105.87C95.642 106.019 95.4446 106.094 95.2206 106.094C94.9966 106.094 94.7886 106.014 94.5966 105.854C94.4153 105.694 94.3246 105.496 94.3246 105.262ZM100.355 114.414C99.8858 114.414 99.4271 114.334 98.9791 114.174C98.5418 114.003 98.1791 113.752 97.8911 113.422L98.5151 112.558C98.7925 112.824 99.0751 113.027 99.3631 113.166C99.6618 113.294 99.9551 113.358 100.243 113.358C100.456 113.358 100.654 113.331 100.835 113.278C101.016 113.224 101.16 113.139 101.267 113.022C101.384 112.894 101.443 112.723 101.443 112.51C101.443 112.275 101.363 112.088 101.203 111.95C101.054 111.811 100.856 111.699 100.611 111.614C100.376 111.528 100.126 111.448 99.8591 111.374C99.3151 111.192 98.8991 110.942 98.6111 110.622C98.3231 110.302 98.1791 109.912 98.1791 109.454C98.1791 109.102 98.2645 108.776 98.4351 108.478C98.6165 108.168 98.8778 107.918 99.2191 107.726C99.5711 107.534 100.003 107.438 100.515 107.438C100.974 107.438 101.384 107.496 101.747 107.614C102.11 107.72 102.451 107.902 102.771 108.158L102.179 109.086C101.987 108.883 101.758 108.734 101.491 108.638C101.224 108.542 100.984 108.488 100.771 108.478C100.59 108.467 100.414 108.494 100.243 108.558C100.083 108.622 99.9498 108.712 99.8431 108.83C99.7365 108.947 99.6831 109.086 99.6831 109.246C99.6831 109.47 99.7578 109.651 99.9071 109.79C100.056 109.928 100.248 110.04 100.483 110.126C100.728 110.2 100.968 110.28 101.203 110.366C101.534 110.462 101.827 110.59 102.083 110.75C102.339 110.91 102.542 111.107 102.691 111.342C102.851 111.576 102.931 111.87 102.931 112.222C102.931 112.616 102.835 112.984 102.643 113.326C102.462 113.656 102.179 113.923 101.795 114.126C101.422 114.318 100.942 114.414 100.355 114.414ZM105.015 114.286V101.902H106.471V109.198L106.439 108.926C106.663 108.488 107.004 108.126 107.463 107.838C107.932 107.55 108.481 107.406 109.111 107.406C109.74 107.406 110.252 107.592 110.647 107.966C111.052 108.328 111.26 108.803 111.271 109.39V114.286H109.767V109.918C109.756 109.555 109.649 109.262 109.447 109.038C109.255 108.803 108.951 108.686 108.535 108.686C108.151 108.686 107.804 108.798 107.495 109.022C107.185 109.235 106.94 109.528 106.759 109.902C106.588 110.275 106.503 110.702 106.503 111.182V114.286H105.015ZM113.859 107.662H115.347V114.286H113.859V107.662ZM113.747 105.262C113.747 105.027 113.837 104.83 114.019 104.67C114.211 104.51 114.419 104.43 114.643 104.43C114.867 104.43 115.064 104.51 115.235 104.67C115.416 104.83 115.507 105.027 115.507 105.262C115.507 105.507 115.416 105.71 115.235 105.87C115.064 106.019 114.867 106.094 114.643 106.094C114.419 106.094 114.211 106.014 114.019 105.854C113.837 105.694 113.747 105.496 113.747 105.262ZM119.249 107.662L119.377 109.278L119.313 109.022C119.526 108.531 119.873 108.142 120.353 107.854C120.833 107.555 121.388 107.406 122.017 107.406C122.646 107.406 123.158 107.592 123.553 107.966C123.958 108.328 124.166 108.803 124.177 109.39V114.286H122.673V109.918C122.662 109.555 122.556 109.262 122.353 109.038C122.161 108.803 121.857 108.686 121.441 108.686C121.057 108.686 120.71 108.792 120.401 109.006C120.092 109.219 119.846 109.512 119.665 109.886C119.494 110.259 119.409 110.691 119.409 111.182V114.286H117.921V107.662H119.249ZM129.949 117.566C129.458 117.566 129.026 117.507 128.653 117.39C128.279 117.283 127.938 117.128 127.629 116.926C127.33 116.723 127.042 116.494 126.765 116.238L127.629 115.23C127.981 115.56 128.338 115.816 128.701 115.998C129.063 116.179 129.469 116.27 129.917 116.27C130.418 116.27 130.839 116.184 131.181 116.014C131.533 115.854 131.799 115.624 131.981 115.326C132.162 115.038 132.253 114.702 132.253 114.318L132.269 112.526L132.397 112.814C132.205 113.272 131.858 113.662 131.357 113.982C130.855 114.291 130.247 114.446 129.533 114.446C128.925 114.446 128.365 114.291 127.853 113.982C127.351 113.672 126.946 113.256 126.637 112.734C126.338 112.2 126.189 111.603 126.189 110.942C126.189 110.248 126.349 109.64 126.669 109.118C126.989 108.584 127.41 108.163 127.933 107.854C128.455 107.544 129.026 107.39 129.645 107.39C130.231 107.39 130.765 107.512 131.245 107.758C131.735 107.992 132.093 108.296 132.317 108.67L132.237 108.942L132.397 107.662H133.757V114.334C133.757 114.931 133.602 115.475 133.293 115.966C132.983 116.456 132.546 116.846 131.981 117.134C131.415 117.422 130.738 117.566 129.949 117.566ZM127.677 110.91C127.677 111.336 127.778 111.726 127.981 112.078C128.183 112.43 128.455 112.707 128.797 112.91C129.149 113.112 129.538 113.214 129.965 113.214C130.359 113.214 130.711 113.144 131.021 113.006C131.341 112.856 131.607 112.659 131.821 112.414C132.034 112.158 132.183 111.864 132.269 111.534V110.222C132.173 109.902 132.013 109.624 131.789 109.39C131.565 109.144 131.298 108.958 130.989 108.83C130.679 108.691 130.338 108.622 129.965 108.622C129.538 108.622 129.149 108.718 128.797 108.91C128.455 109.102 128.183 109.374 127.981 109.726C127.778 110.067 127.677 110.462 127.677 110.91ZM150.814 113.294C150.654 113.432 150.43 113.571 150.142 113.71C149.854 113.838 149.534 113.955 149.182 114.062C148.84 114.168 148.483 114.254 148.11 114.318C147.747 114.382 147.406 114.414 147.086 114.414C146.158 114.414 145.32 114.27 144.574 113.982C143.838 113.694 143.203 113.294 142.67 112.782C142.147 112.27 141.742 111.667 141.454 110.974C141.176 110.28 141.038 109.528 141.038 108.718C141.038 107.758 141.192 106.899 141.502 106.142C141.822 105.374 142.254 104.728 142.798 104.206C143.352 103.672 143.987 103.272 144.702 103.006C145.416 102.728 146.174 102.59 146.974 102.59C147.646 102.59 148.27 102.67 148.846 102.83C149.422 102.99 149.928 103.192 150.366 103.438L149.838 104.862C149.624 104.734 149.358 104.616 149.038 104.51C148.728 104.403 148.408 104.318 148.078 104.254C147.747 104.179 147.438 104.142 147.15 104.142C146.467 104.142 145.848 104.248 145.294 104.462C144.739 104.664 144.264 104.963 143.87 105.358C143.475 105.742 143.171 106.211 142.958 106.766C142.744 107.31 142.638 107.923 142.638 108.606C142.638 109.235 142.744 109.811 142.958 110.334C143.171 110.856 143.475 111.31 143.87 111.694C144.264 112.067 144.734 112.36 145.278 112.574C145.832 112.776 146.44 112.878 147.102 112.878C147.496 112.878 147.886 112.84 148.27 112.766C148.654 112.68 148.984 112.563 149.262 112.414V110.11H146.958V108.622H150.814V113.294ZM156.477 114.446C155.72 114.446 155.069 114.296 154.525 113.998C153.981 113.688 153.56 113.272 153.261 112.75C152.973 112.216 152.829 111.608 152.829 110.926C152.829 110.275 152.995 109.683 153.325 109.15C153.656 108.616 154.099 108.19 154.653 107.87C155.208 107.55 155.827 107.39 156.509 107.39C157.384 107.39 158.109 107.646 158.685 108.158C159.261 108.67 159.651 109.374 159.853 110.27L154.397 112.19L154.045 111.31L158.525 109.678L158.205 109.886C158.077 109.534 157.864 109.23 157.565 108.974C157.267 108.707 156.877 108.574 156.397 108.574C155.992 108.574 155.629 108.675 155.309 108.878C154.989 109.07 154.739 109.336 154.557 109.678C154.376 110.019 154.285 110.408 154.285 110.846C154.285 111.304 154.381 111.71 154.573 112.062C154.765 112.403 155.027 112.675 155.357 112.878C155.699 113.07 156.083 113.166 156.509 113.166C156.797 113.166 157.075 113.112 157.341 113.006C157.619 112.899 157.875 112.76 158.109 112.59L158.797 113.694C158.467 113.918 158.093 114.099 157.677 114.238C157.272 114.376 156.872 114.446 156.477 114.446ZM164.47 114.446C163.851 114.446 163.286 114.312 162.774 114.046C162.273 113.779 161.873 113.39 161.574 112.878C161.286 112.355 161.142 111.72 161.142 110.974C161.142 110.238 161.297 109.603 161.606 109.07C161.915 108.526 162.326 108.11 162.838 107.822C163.361 107.534 163.931 107.39 164.55 107.39C165.169 107.39 165.691 107.534 166.118 107.822C166.545 108.099 166.87 108.43 167.094 108.814L166.998 109.07L167.142 107.662H168.518V114.286H167.03V112.558L167.19 112.942C167.147 113.048 167.051 113.187 166.902 113.358C166.763 113.518 166.571 113.683 166.326 113.854C166.091 114.024 165.819 114.168 165.51 114.286C165.201 114.392 164.854 114.446 164.47 114.446ZM164.87 113.214C165.243 113.214 165.579 113.144 165.878 113.006C166.177 112.867 166.422 112.675 166.614 112.43C166.817 112.174 166.955 111.87 167.03 111.518V110.222C166.945 109.902 166.795 109.624 166.582 109.39C166.369 109.144 166.113 108.958 165.814 108.83C165.515 108.691 165.185 108.622 164.822 108.622C164.427 108.622 164.065 108.718 163.734 108.91C163.403 109.102 163.137 109.368 162.934 109.71C162.742 110.051 162.646 110.451 162.646 110.91C162.646 111.336 162.747 111.726 162.95 112.078C163.153 112.43 163.425 112.707 163.766 112.91C164.107 113.112 164.475 113.214 164.87 113.214ZM172.421 107.662L172.565 109.582L172.485 109.326C172.656 108.92 172.901 108.579 173.221 108.302C173.552 108.014 173.893 107.795 174.245 107.646C174.608 107.486 174.922 107.406 175.189 107.406L175.109 108.878C174.608 108.846 174.165 108.942 173.781 109.166C173.408 109.39 173.109 109.688 172.885 110.062C172.672 110.435 172.565 110.835 172.565 111.262V114.286H171.093V107.662H172.421Z" fill="white"/>
<path d="M85.664 185.143V173.207H85.68L91.744 181.815L91.088 181.687L97.136 173.207H97.168V185.143H95.632V176.727L95.728 177.511L91.36 183.687H91.328L86.896 177.511L87.168 176.791V185.143H85.664ZM99.5481 181.767C99.5481 181.105 99.7028 180.508 100.012 179.975C100.332 179.441 100.769 179.02 101.324 178.711C101.879 178.401 102.508 178.247 103.212 178.247C103.937 178.247 104.572 178.401 105.116 178.711C105.66 179.02 106.081 179.441 106.38 179.975C106.679 180.508 106.828 181.105 106.828 181.767C106.828 182.428 106.679 183.031 106.38 183.575C106.081 184.108 105.655 184.529 105.1 184.839C104.556 185.148 103.921 185.303 103.196 185.303C102.492 185.303 101.863 185.159 101.308 184.871C100.764 184.572 100.332 184.161 100.012 183.639C99.7028 183.105 99.5481 182.481 99.5481 181.767ZM101.036 181.783C101.036 182.209 101.132 182.599 101.324 182.951C101.516 183.292 101.772 183.564 102.092 183.767C102.423 183.969 102.785 184.071 103.18 184.071C103.596 184.071 103.964 183.969 104.284 183.767C104.615 183.564 104.871 183.292 105.052 182.951C105.233 182.599 105.324 182.209 105.324 181.783C105.324 181.356 105.233 180.972 105.052 180.631C104.871 180.279 104.615 180.001 104.284 179.799C103.964 179.585 103.596 179.479 103.18 179.479C102.775 179.479 102.407 179.585 102.076 179.799C101.756 180.012 101.5 180.295 101.308 180.647C101.127 180.988 101.036 181.367 101.036 181.783ZM110.939 185.399C110.342 185.399 109.846 185.217 109.451 184.855C109.067 184.481 108.864 184.001 108.843 183.415V178.519H110.331V182.887C110.352 183.249 110.454 183.543 110.635 183.767C110.827 183.991 111.126 184.108 111.531 184.119C111.904 184.119 112.235 184.012 112.523 183.799C112.822 183.575 113.062 183.276 113.243 182.903C113.424 182.519 113.515 182.087 113.515 181.607V178.519H115.003V185.143H113.643L113.515 183.511L113.595 183.799C113.467 184.108 113.27 184.385 113.003 184.631C112.747 184.865 112.443 185.052 112.091 185.191C111.739 185.329 111.355 185.399 110.939 185.399ZM118.905 178.519L119.033 180.135L118.969 179.879C119.183 179.388 119.529 178.999 120.009 178.711C120.489 178.412 121.044 178.263 121.673 178.263C122.303 178.263 122.815 178.449 123.209 178.823C123.615 179.185 123.823 179.66 123.833 180.247V185.143H122.329V180.775C122.319 180.412 122.212 180.119 122.009 179.895C121.817 179.66 121.513 179.543 121.097 179.543C120.713 179.543 120.367 179.649 120.057 179.863C119.748 180.076 119.503 180.369 119.321 180.743C119.151 181.116 119.065 181.548 119.065 182.039V185.143H117.577V178.519H118.905ZM127.061 175.607H128.549V178.551H130.373V179.719H128.549V185.143H127.061V179.719H125.845V178.551H127.061V175.607ZM134.923 185.303C134.304 185.303 133.739 185.169 133.227 184.903C132.726 184.636 132.326 184.247 132.027 183.735C131.739 183.212 131.595 182.577 131.595 181.831C131.595 181.095 131.75 180.46 132.059 179.927C132.368 179.383 132.779 178.967 133.291 178.679C133.814 178.391 134.384 178.247 135.003 178.247C135.622 178.247 136.144 178.391 136.571 178.679C136.998 178.956 137.323 179.287 137.547 179.671L137.451 179.927L137.595 178.519H138.971V185.143H137.483V183.415L137.643 183.799C137.6 183.905 137.504 184.044 137.355 184.215C137.216 184.375 137.024 184.54 136.779 184.711C136.544 184.881 136.272 185.025 135.963 185.143C135.654 185.249 135.307 185.303 134.923 185.303ZM135.323 184.071C135.696 184.071 136.032 184.001 136.331 183.863C136.63 183.724 136.875 183.532 137.067 183.287C137.27 183.031 137.408 182.727 137.483 182.375V181.079C137.398 180.759 137.248 180.481 137.035 180.247C136.822 180.001 136.566 179.815 136.267 179.687C135.968 179.548 135.638 179.479 135.275 179.479C134.88 179.479 134.518 179.575 134.187 179.767C133.856 179.959 133.59 180.225 133.387 180.567C133.195 180.908 133.099 181.308 133.099 181.767C133.099 182.193 133.2 182.583 133.403 182.935C133.606 183.287 133.878 183.564 134.219 183.767C134.56 183.969 134.928 184.071 135.323 184.071ZM141.546 178.519H143.034V185.143H141.546V178.519ZM141.434 176.119C141.434 175.884 141.525 175.687 141.706 175.527C141.898 175.367 142.106 175.287 142.33 175.287C142.554 175.287 142.751 175.367 142.922 175.527C143.103 175.687 143.194 175.884 143.194 176.119C143.194 176.364 143.103 176.567 142.922 176.727C142.751 176.876 142.554 176.951 142.33 176.951C142.106 176.951 141.898 176.871 141.706 176.711C141.525 176.551 141.434 176.353 141.434 176.119ZM146.937 178.519L147.065 180.135L147.001 179.879C147.214 179.388 147.561 178.999 148.041 178.711C148.521 178.412 149.075 178.263 149.705 178.263C150.334 178.263 150.846 178.449 151.241 178.823C151.646 179.185 151.854 179.66 151.865 180.247V185.143H150.361V180.775C150.35 180.412 150.243 180.119 150.041 179.895C149.849 179.66 149.545 179.543 149.129 179.543C148.745 179.543 148.398 179.649 148.089 179.863C147.779 180.076 147.534 180.369 147.353 180.743C147.182 181.116 147.097 181.548 147.097 182.039V185.143H145.609V178.519H146.937ZM168.379 184.279C168.187 184.407 167.925 184.551 167.595 184.711C167.264 184.871 166.875 185.004 166.427 185.111C165.989 185.217 165.509 185.271 164.987 185.271C164.091 185.26 163.28 185.1 162.555 184.791C161.84 184.481 161.232 184.06 160.731 183.527C160.229 182.993 159.84 182.38 159.563 181.687C159.296 180.983 159.163 180.236 159.163 179.447C159.163 178.583 159.301 177.788 159.579 177.063C159.867 176.327 160.267 175.692 160.779 175.159C161.291 174.615 161.893 174.193 162.587 173.895C163.291 173.596 164.059 173.447 164.891 173.447C165.584 173.447 166.213 173.543 166.779 173.735C167.344 173.916 167.829 174.135 168.235 174.391L167.611 175.831C167.291 175.617 166.901 175.415 166.443 175.223C165.995 175.031 165.493 174.935 164.939 174.935C164.373 174.935 163.84 175.047 163.339 175.271C162.837 175.495 162.395 175.809 162.011 176.215C161.627 176.62 161.323 177.095 161.099 177.639C160.885 178.172 160.779 178.748 160.779 179.367C160.779 179.996 160.875 180.583 161.067 181.127C161.269 181.66 161.552 182.124 161.915 182.519C162.288 182.913 162.736 183.223 163.259 183.447C163.781 183.671 164.368 183.783 165.019 183.783C165.605 183.783 166.128 183.692 166.587 183.511C167.045 183.329 167.424 183.127 167.723 182.903L168.379 184.279ZM170.624 172.759H172.112V185.143H170.624V172.759ZM174.687 178.519H176.175V185.143H174.687V178.519ZM174.575 176.119C174.575 175.884 174.665 175.687 174.847 175.527C175.039 175.367 175.247 175.287 175.471 175.287C175.695 175.287 175.892 175.367 176.063 175.527C176.244 175.687 176.335 175.884 176.335 176.119C176.335 176.364 176.244 176.567 176.063 176.727C175.892 176.876 175.695 176.951 175.471 176.951C175.247 176.951 175.039 176.871 174.847 176.711C174.665 176.551 174.575 176.353 174.575 176.119ZM180.077 178.519L180.205 180.007L180.141 179.879C180.386 179.377 180.733 178.983 181.181 178.695C181.64 178.407 182.162 178.263 182.749 178.263C183.122 178.263 183.453 178.321 183.741 178.439C184.029 178.556 184.264 178.727 184.445 178.951C184.637 179.164 184.76 179.431 184.813 179.751L184.733 179.799C184.989 179.319 185.341 178.945 185.789 178.679C186.248 178.401 186.728 178.263 187.229 178.263C187.88 178.263 188.392 178.449 188.765 178.823C189.149 179.185 189.346 179.66 189.357 180.247V185.143H187.869V180.775C187.858 180.433 187.773 180.151 187.613 179.927C187.464 179.692 187.197 179.564 186.813 179.543C186.429 179.543 186.082 179.66 185.773 179.895C185.474 180.129 185.24 180.433 185.069 180.807C184.898 181.169 184.808 181.564 184.797 181.991V185.143H183.309V180.775C183.298 180.433 183.208 180.151 183.037 179.927C182.877 179.692 182.605 179.564 182.221 179.543C181.826 179.543 181.48 179.66 181.181 179.895C180.882 180.129 180.648 180.433 180.477 180.807C180.317 181.18 180.237 181.58 180.237 182.007V185.143H178.749V178.519H180.077ZM195.984 185.303C195.376 185.303 194.838 185.169 194.368 184.903C193.91 184.636 193.542 184.3 193.264 183.895L193.44 183.431V185.143H191.952V172.759H193.424V180.039L193.376 179.479C193.643 179.116 194.022 178.823 194.512 178.599C195.014 178.364 195.568 178.247 196.176 178.247C196.774 178.247 197.318 178.391 197.808 178.679C198.299 178.967 198.688 179.372 198.976 179.895C199.275 180.407 199.424 181.02 199.424 181.735C199.424 182.481 199.264 183.121 198.944 183.655C198.635 184.188 198.219 184.599 197.696 184.887C197.174 185.164 196.603 185.303 195.984 185.303ZM195.68 184.039C196.107 184.039 196.491 183.937 196.832 183.735C197.174 183.532 197.44 183.26 197.632 182.919C197.824 182.567 197.92 182.167 197.92 181.719C197.92 181.292 197.819 180.908 197.616 180.567C197.424 180.215 197.158 179.937 196.816 179.735C196.486 179.532 196.107 179.431 195.68 179.431C195.318 179.431 194.982 179.5 194.672 179.639C194.363 179.777 194.102 179.969 193.888 180.215C193.675 180.449 193.526 180.727 193.44 181.047V182.375C193.526 182.695 193.67 182.983 193.872 183.239C194.075 183.484 194.331 183.681 194.64 183.831C194.95 183.969 195.296 184.039 195.68 184.039ZM201.437 178.519H202.925V185.143H201.437V178.519ZM201.325 176.119C201.325 175.884 201.415 175.687 201.597 175.527C201.789 175.367 201.997 175.287 202.221 175.287C202.445 175.287 202.642 175.367 202.813 175.527C202.994 175.687 203.085 175.884 203.085 176.119C203.085 176.364 202.994 176.567 202.813 176.727C202.642 176.876 202.445 176.951 202.221 176.951C201.997 176.951 201.789 176.871 201.597 176.711C201.415 176.551 201.325 176.353 201.325 176.119ZM206.827 178.519L206.955 180.135L206.891 179.879C207.104 179.388 207.451 178.999 207.931 178.711C208.411 178.412 208.966 178.263 209.595 178.263C210.224 178.263 210.736 178.449 211.131 178.823C211.536 179.185 211.744 179.66 211.755 180.247V185.143H210.251V180.775C210.24 180.412 210.134 180.119 209.931 179.895C209.739 179.66 209.435 179.543 209.019 179.543C208.635 179.543 208.288 179.649 207.979 179.863C207.67 180.076 207.424 180.369 207.243 180.743C207.072 181.116 206.987 181.548 206.987 182.039V185.143H205.499V178.519H206.827ZM217.527 188.423C217.036 188.423 216.604 188.364 216.231 188.247C215.858 188.14 215.516 187.985 215.207 187.783C214.908 187.58 214.62 187.351 214.343 187.095L215.207 186.087C215.559 186.417 215.916 186.673 216.279 186.855C216.642 187.036 217.047 187.127 217.495 187.127C217.996 187.127 218.418 187.041 218.759 186.871C219.111 186.711 219.378 186.481 219.559 186.183C219.74 185.895 219.831 185.559 219.831 185.175L219.847 183.383L219.975 183.671C219.783 184.129 219.436 184.519 218.935 184.839C218.434 185.148 217.826 185.303 217.111 185.303C216.503 185.303 215.943 185.148 215.431 184.839C214.93 184.529 214.524 184.113 214.215 183.591C213.916 183.057 213.767 182.46 213.767 181.799C213.767 181.105 213.927 180.497 214.247 179.975C214.567 179.441 214.988 179.02 215.511 178.711C216.034 178.401 216.604 178.247 217.223 178.247C217.81 178.247 218.343 178.369 218.823 178.615C219.314 178.849 219.671 179.153 219.895 179.527L219.815 179.799L219.975 178.519H221.335V185.191C221.335 185.788 221.18 186.332 220.871 186.823C220.562 187.313 220.124 187.703 219.559 187.991C218.994 188.279 218.316 188.423 217.527 188.423ZM215.255 181.767C215.255 182.193 215.356 182.583 215.559 182.935C215.762 183.287 216.034 183.564 216.375 183.767C216.727 183.969 217.116 184.071 217.543 184.071C217.938 184.071 218.29 184.001 218.599 183.863C218.919 183.713 219.186 183.516 219.399 183.271C219.612 183.015 219.762 182.721 219.847 182.391V181.079C219.751 180.759 219.591 180.481 219.367 180.247C219.143 180.001 218.876 179.815 218.567 179.687C218.258 179.548 217.916 179.479 217.543 179.479C217.116 179.479 216.727 179.575 216.375 179.767C216.034 179.959 215.762 180.231 215.559 180.583C215.356 180.924 215.255 181.319 215.255 181.767Z" fill="white"/>
<path d="M94.72 263.008C94.56 263.147 94.336 263.285 94.048 263.424C93.76 263.552 93.44 263.669 93.088 263.776C92.7467 263.883 92.3893 263.968 92.016 264.032C91.6533 264.096 91.312 264.128 90.992 264.128C90.064 264.128 89.2267 263.984 88.48 263.696C87.744 263.408 87.1093 263.008 86.576 262.496C86.0533 261.984 85.648 261.381 85.36 260.688C85.0827 259.995 84.944 259.243 84.944 258.432C84.944 257.472 85.0987 256.613 85.408 255.856C85.728 255.088 86.16 254.443 86.704 253.92C87.2587 253.387 87.8933 252.987 88.608 252.72C89.3227 252.443 90.08 252.304 90.88 252.304C91.552 252.304 92.176 252.384 92.752 252.544C93.328 252.704 93.8347 252.907 94.272 253.152L93.744 254.576C93.5307 254.448 93.264 254.331 92.944 254.224C92.6347 254.117 92.3147 254.032 91.984 253.968C91.6533 253.893 91.344 253.856 91.056 253.856C90.3733 253.856 89.7547 253.963 89.2 254.176C88.6453 254.379 88.1707 254.677 87.776 255.072C87.3813 255.456 87.0773 255.925 86.864 256.48C86.6507 257.024 86.544 257.637 86.544 258.32C86.544 258.949 86.6507 259.525 86.864 260.048C87.0773 260.571 87.3813 261.024 87.776 261.408C88.1707 261.781 88.64 262.075 89.184 262.288C89.7387 262.491 90.3467 262.592 91.008 262.592C91.4027 262.592 91.792 262.555 92.176 262.48C92.56 262.395 92.8907 262.277 93.168 262.128V259.824H90.864V258.336H94.72V263.008ZM99.4076 264.256C98.8103 264.256 98.3143 264.075 97.9196 263.712C97.5356 263.339 97.333 262.859 97.3116 262.272V257.376H98.7996V261.744C98.821 262.107 98.9223 262.4 99.1036 262.624C99.2956 262.848 99.5943 262.965 99.9996 262.976C100.373 262.976 100.704 262.869 100.992 262.656C101.29 262.432 101.53 262.133 101.712 261.76C101.893 261.376 101.984 260.944 101.984 260.464V257.376H103.472V264H102.112L101.984 262.368L102.064 262.656C101.936 262.965 101.738 263.243 101.472 263.488C101.216 263.723 100.912 263.909 100.56 264.048C100.208 264.187 99.8236 264.256 99.4076 264.256ZM106.046 257.376H107.534V264H106.046V257.376ZM105.934 254.976C105.934 254.741 106.025 254.544 106.206 254.384C106.398 254.224 106.606 254.144 106.83 254.144C107.054 254.144 107.251 254.224 107.422 254.384C107.603 254.544 107.694 254.741 107.694 254.976C107.694 255.221 107.603 255.424 107.422 255.584C107.251 255.733 107.054 255.808 106.83 255.808C106.606 255.808 106.398 255.728 106.206 255.568C106.025 255.408 105.934 255.211 105.934 254.976ZM112.797 264.16C112.189 264.16 111.634 264.016 111.133 263.728C110.642 263.429 110.253 263.013 109.965 262.48C109.677 261.936 109.533 261.312 109.533 260.608C109.533 259.872 109.682 259.243 109.981 258.72C110.29 258.197 110.706 257.797 111.229 257.52C111.751 257.243 112.338 257.104 112.989 257.104C113.511 257.104 114.007 257.216 114.477 257.44C114.957 257.664 115.33 257.973 115.597 258.368L115.533 258.896V251.616H117.005V264H115.517V262.352L115.677 262.768C115.367 263.173 114.967 263.509 114.477 263.776C113.986 264.032 113.426 264.16 112.797 264.16ZM113.261 262.896C113.655 262.896 114.007 262.827 114.317 262.688C114.626 262.539 114.882 262.336 115.085 262.08C115.287 261.824 115.431 261.52 115.517 261.168V259.92C115.431 259.6 115.277 259.323 115.053 259.088C114.839 258.843 114.578 258.651 114.269 258.512C113.97 258.363 113.634 258.288 113.261 258.288C112.855 258.288 112.482 258.389 112.141 258.592C111.81 258.784 111.543 259.051 111.341 259.392C111.138 259.733 111.037 260.128 111.037 260.576C111.037 261.013 111.138 261.408 111.341 261.76C111.543 262.101 111.815 262.379 112.157 262.592C112.498 262.795 112.866 262.896 113.261 262.896ZM122.665 264.16C121.908 264.16 121.257 264.011 120.713 263.712C120.169 263.403 119.748 262.987 119.449 262.464C119.161 261.931 119.017 261.323 119.017 260.64C119.017 259.989 119.182 259.397 119.513 258.864C119.844 258.331 120.286 257.904 120.841 257.584C121.396 257.264 122.014 257.104 122.697 257.104C123.572 257.104 124.297 257.36 124.873 257.872C125.449 258.384 125.838 259.088 126.041 259.984L120.585 261.904L120.233 261.024L124.713 259.392L124.393 259.6C124.265 259.248 124.052 258.944 123.753 258.688C123.454 258.421 123.065 258.288 122.585 258.288C122.18 258.288 121.817 258.389 121.497 258.592C121.177 258.784 120.926 259.051 120.745 259.392C120.564 259.733 120.473 260.123 120.473 260.56C120.473 261.019 120.569 261.424 120.761 261.776C120.953 262.117 121.214 262.389 121.545 262.592C121.886 262.784 122.27 262.88 122.697 262.88C122.985 262.88 123.262 262.827 123.529 262.72C123.806 262.613 124.062 262.475 124.297 262.304L124.985 263.408C124.654 263.632 124.281 263.813 123.865 263.952C123.46 264.091 123.06 264.16 122.665 264.16ZM130.593 264.16C129.985 264.16 129.431 264.016 128.929 263.728C128.439 263.429 128.049 263.013 127.761 262.48C127.473 261.936 127.329 261.312 127.329 260.608C127.329 259.872 127.479 259.243 127.777 258.72C128.087 258.197 128.503 257.797 129.025 257.52C129.548 257.243 130.135 257.104 130.785 257.104C131.308 257.104 131.804 257.216 132.273 257.44C132.753 257.664 133.127 257.973 133.393 258.368L133.329 258.896V251.616H134.801V264H133.313V262.352L133.473 262.768C133.164 263.173 132.764 263.509 132.273 263.776C131.783 264.032 131.223 264.16 130.593 264.16ZM131.057 262.896C131.452 262.896 131.804 262.827 132.113 262.688C132.423 262.539 132.679 262.336 132.881 262.08C133.084 261.824 133.228 261.52 133.313 261.168V259.92C133.228 259.6 133.073 259.323 132.849 259.088C132.636 258.843 132.375 258.651 132.065 258.512C131.767 258.363 131.431 258.288 131.057 258.288C130.652 258.288 130.279 258.389 129.937 258.592C129.607 258.784 129.34 259.051 129.137 259.392C128.935 259.733 128.833 260.128 128.833 260.576C128.833 261.013 128.935 261.408 129.137 261.76C129.34 262.101 129.612 262.379 129.953 262.592C130.295 262.795 130.663 262.896 131.057 262.896ZM141.972 252.432H149.652V253.92H146.548V264H144.996V253.92H141.972V252.432ZM149.454 260.624C149.454 259.963 149.609 259.365 149.918 258.832C150.238 258.299 150.676 257.877 151.23 257.568C151.785 257.259 152.414 257.104 153.118 257.104C153.844 257.104 154.478 257.259 155.022 257.568C155.566 257.877 155.988 258.299 156.286 258.832C156.585 259.365 156.734 259.963 156.734 260.624C156.734 261.285 156.585 261.888 156.286 262.432C155.988 262.965 155.561 263.387 155.006 263.696C154.462 264.005 153.828 264.16 153.102 264.16C152.398 264.16 151.769 264.016 151.214 263.728C150.67 263.429 150.238 263.019 149.918 262.496C149.609 261.963 149.454 261.339 149.454 260.624ZM150.942 260.64C150.942 261.067 151.038 261.456 151.23 261.808C151.422 262.149 151.678 262.421 151.998 262.624C152.329 262.827 152.692 262.928 153.086 262.928C153.502 262.928 153.87 262.827 154.19 262.624C154.521 262.421 154.777 262.149 154.958 261.808C155.14 261.456 155.23 261.067 155.23 260.64C155.23 260.213 155.14 259.829 154.958 259.488C154.777 259.136 154.521 258.859 154.19 258.656C153.87 258.443 153.502 258.336 153.086 258.336C152.681 258.336 152.313 258.443 151.982 258.656C151.662 258.869 151.406 259.152 151.214 259.504C151.033 259.845 150.942 260.224 150.942 260.64ZM160.845 264.256C160.248 264.256 159.752 264.075 159.357 263.712C158.973 263.339 158.77 262.859 158.749 262.272V257.376H160.237V261.744C160.258 262.107 160.36 262.4 160.541 262.624C160.733 262.848 161.032 262.965 161.437 262.976C161.81 262.976 162.141 262.869 162.429 262.656C162.728 262.432 162.968 262.133 163.149 261.76C163.33 261.376 163.421 260.944 163.421 260.464V257.376H164.909V264H163.549L163.421 262.368L163.501 262.656C163.373 262.965 163.176 263.243 162.909 263.488C162.653 263.723 162.349 263.909 161.997 264.048C161.645 264.187 161.261 264.256 160.845 264.256ZM168.812 257.376L168.956 259.296L168.876 259.04C169.046 258.635 169.292 258.293 169.612 258.016C169.942 257.728 170.284 257.509 170.636 257.36C170.998 257.2 171.313 257.12 171.58 257.12L171.5 258.592C170.998 258.56 170.556 258.656 170.172 258.88C169.798 259.104 169.5 259.403 169.276 259.776C169.062 260.149 168.956 260.549 168.956 260.976V264H167.484V257.376H168.812Z" fill="white"/>
<path d="M37.6433 258.233H25.1124L28.5082 246.772C28.7951 245.949 28.9546 245.052 28.9546 244.117C28.9546 240.265 26.2921 237.143 23.008 237.143C19.7238 237.143 17.0614 240.284 17.0614 244.117C17.0614 245.052 17.2208 245.949 17.5078 246.772L20.9035 258.233H8.34077L3 282.857H43L37.6433 258.233ZM23.008 240.789C24.5703 240.789 25.8617 242.285 25.8617 244.136C25.8617 245.987 24.5863 247.482 23.008 247.482C21.4297 247.482 20.1542 245.987 20.1542 244.136C20.1383 242.285 21.4297 240.789 23.008 240.789ZM9.09007 260.421C9.15384 260.458 9.23356 260.477 9.31327 260.477C9.4727 260.477 9.61618 260.402 9.74372 260.271C9.85532 260.159 9.91909 259.972 9.91909 259.766C9.91909 259.71 9.91909 259.673 9.90315 259.635H21.3181L23.0239 265.394L24.7298 259.635H36.7505L41.326 280.819C41.2304 280.838 41.1188 280.894 41.055 281.006C40.9434 281.137 40.8796 281.305 40.8796 281.511H4.53049L9.09007 260.421ZM25.4153 276.855C25.1124 276.762 24.7617 276.949 24.6819 277.341C24.6022 277.715 24.7617 278.108 25.0965 278.202C25.1443 278.22 25.2081 278.22 25.2718 278.22C25.5269 278.22 25.766 278.015 25.8458 277.715C25.9095 277.341 25.7182 276.968 25.4153 276.855ZM28.6038 277.585C28.285 277.528 27.9661 277.772 27.9024 278.145C27.8545 278.519 28.0618 278.893 28.3806 278.968C28.4125 278.968 28.4444 278.987 28.4763 278.987C28.7632 278.987 29.0024 278.744 29.0502 278.407C29.1459 278.015 28.9227 277.659 28.6038 277.585ZM22.9123 266.329C22.2108 266.366 21.6688 267.077 21.6847 267.881C21.7166 268.685 22.2746 269.32 22.9601 269.32C22.9761 269.32 22.992 269.32 23.008 269.32C23.7254 269.283 24.2674 268.573 24.2356 267.769C24.2037 266.946 23.5978 266.31 22.9123 266.329ZM38.3607 279.94C38.0418 279.866 37.7071 280.109 37.6433 280.483C37.5795 280.857 37.7868 281.249 38.1056 281.324C38.1375 281.324 38.1853 281.343 38.2491 281.343C38.5201 281.343 38.7752 281.118 38.823 280.782C38.8868 280.389 38.6955 280.015 38.3607 279.94ZM22.3543 272.368C22.4022 272.368 22.434 272.387 22.4978 272.387C22.7688 272.387 23.0239 272.162 23.0717 271.826C23.1355 271.452 22.9283 271.059 22.6094 270.984C22.2906 270.91 21.9558 271.153 21.892 271.527C21.8282 271.901 22.0355 272.256 22.3543 272.368ZM35.1244 279.118C34.8055 279.043 34.4707 279.286 34.4069 279.66C34.3432 280.034 34.5504 280.426 34.8693 280.483C34.9012 280.483 34.949 280.501 34.9809 280.501C35.2519 280.501 35.507 280.277 35.5548 279.94C35.6505 279.585 35.4273 279.192 35.1244 279.118ZM31.8721 278.332C31.5532 278.258 31.2184 278.501 31.1706 278.875C31.1068 279.249 31.3141 279.623 31.6329 279.697C31.6648 279.716 31.7126 279.716 31.7445 279.716C32.0155 279.716 32.2706 279.492 32.3185 279.155C32.3982 278.781 32.1909 278.407 31.8721 278.332ZM15.499 261.486C15.1802 261.449 14.8613 261.711 14.8294 262.085C14.7975 262.459 15.0207 262.833 15.3396 262.87C15.3555 262.87 15.3874 262.87 15.4033 262.87C15.6903 262.87 15.9454 262.608 15.9932 262.253C16.057 261.86 15.8179 261.524 15.499 261.486ZM12.2786 260.907C11.9597 260.832 11.6249 261.075 11.5612 261.43C11.4974 261.804 11.7047 262.197 12.0076 262.272C12.0554 262.272 12.0873 262.29 12.1511 262.29C12.4221 262.29 12.6612 262.066 12.725 261.748C12.8047 261.374 12.5974 260.982 12.2786 260.907ZM22.1471 264.833C22.3703 264.534 22.3384 264.085 22.0992 263.861C21.8442 263.599 21.4615 263.637 21.2702 263.917C21.047 264.216 21.0789 264.665 21.3181 264.889C21.4297 265.001 21.5731 265.076 21.7166 265.076C21.8442 265.058 22.0195 264.983 22.1471 264.833ZM18.831 262.103C18.5122 262.029 18.1774 262.234 18.1136 262.627C18.0498 263.02 18.2252 263.393 18.56 263.468C18.6078 263.487 18.6397 263.487 18.7035 263.487C18.9745 263.487 19.2136 263.263 19.2774 262.945C19.3412 262.571 19.1499 262.216 18.831 262.103ZM22.2427 274.855C21.9558 275.042 21.8442 275.453 22.0036 275.79C22.0992 276.033 22.3065 276.145 22.5297 276.145C22.6253 276.145 22.721 276.126 22.8167 276.07C23.1036 275.883 23.2152 275.472 23.0558 275.117C22.9123 274.799 22.5297 274.668 22.2427 274.855Z" fill="white"/>
</svg>
