<svg width="40" height="47" viewBox="0 0 40 47" fill="none" xmlns="http://www.w3.org/2000/svg">
<path d="M26.6667 13.7619C27.5507 13.7619 28.3986 13.3606 29.0237 12.6461C29.6488 11.9317 30 10.9628 30 9.95241C30 8.94206 29.6488 7.97309 29.0237 7.25867C28.3986 6.54424 27.5507 6.14288 26.6667 6.14288C25.7826 6.14288 24.9348 6.54424 24.3096 7.25867C23.6845 7.97309 23.3333 8.94206 23.3333 9.95241C23.3333 10.9628 23.6845 11.9317 24.3096 12.6461C24.9348 13.3606 25.7826 13.7619 26.6667 13.7619ZM26.6667 13.7619V32.8096C26.6667 44.2381 10 44.2381 10 32.8096V25.1905L13.3333 29" stroke="white" stroke-width="2" stroke-linecap="round" stroke-linejoin="round"/>
</svg>
