<svg width="40" height="46" viewBox="0 0 40 46" fill="none" xmlns="http://www.w3.org/2000/svg">
<path d="M34.6433 21.2331H22.1124L25.5082 9.7718C25.7951 8.94913 25.9546 8.05168 25.9546 7.11682C25.9546 3.26523 23.2921 0.142822 20.008 0.142822C16.7238 0.142822 14.0614 3.28393 14.0614 7.11682C14.0614 8.05168 14.2208 8.94913 14.5078 9.7718L17.9035 21.2331H5.34077L0 45.8571H40L34.6433 21.2331ZM20.008 3.78875C21.5703 3.78875 22.8617 5.28451 22.8617 7.13552C22.8617 8.98653 21.5863 10.4823 20.008 10.4823C18.4297 10.4823 17.1542 8.98653 17.1542 7.13552C17.1383 5.28451 18.4297 3.78875 20.008 3.78875ZM6.09007 23.4206C6.15384 23.458 6.23356 23.4767 6.31327 23.4767C6.4727 23.4767 6.61618 23.402 6.74372 23.2711C6.85532 23.1589 6.91909 22.9719 6.91909 22.7663C6.91909 22.7102 6.91909 22.6728 6.90315 22.6354H18.3181L20.0239 28.3941L21.7298 22.6354H33.7505L38.326 43.8191C38.2304 43.8378 38.1188 43.8939 38.055 44.0061C37.9434 44.137 37.8796 44.3053 37.8796 44.5109H1.53049L6.09007 23.4206ZM22.4153 39.8554C22.1124 39.7619 21.7617 39.9488 21.6819 40.3415C21.6022 40.7154 21.7617 41.1081 22.0965 41.2015C22.1443 41.2202 22.2081 41.2202 22.2718 41.2202C22.5269 41.2202 22.766 41.0146 22.8458 40.7154C22.9095 40.3415 22.7182 39.9675 22.4153 39.8554ZM25.6038 40.5845C25.285 40.5284 24.9661 40.7715 24.9024 41.1455C24.8545 41.5194 25.0618 41.8933 25.3806 41.9681C25.4125 41.9681 25.4444 41.9868 25.4763 41.9868C25.7632 41.9868 26.0024 41.7438 26.0502 41.4072C26.1459 41.0146 25.9227 40.6593 25.6038 40.5845ZM19.9123 29.3289C19.2108 29.3663 18.6688 30.0768 18.6847 30.8808C18.7166 31.6847 19.2746 32.3204 19.9601 32.3204C19.9761 32.3204 19.992 32.3204 20.008 32.3204C20.7254 32.2831 21.2674 31.5726 21.2356 30.7686C21.2037 29.9459 20.5978 29.3102 19.9123 29.3289ZM35.3607 42.9404C35.0418 42.8656 34.7071 43.1086 34.6433 43.4826C34.5795 43.8565 34.7868 44.2492 35.1056 44.3239C35.1375 44.3239 35.1853 44.3426 35.2491 44.3426C35.5201 44.3426 35.7752 44.1183 35.823 43.7817C35.8868 43.3891 35.6955 43.0152 35.3607 42.9404ZM19.3543 35.3681C19.4022 35.3681 19.434 35.3868 19.4978 35.3868C19.7688 35.3868 20.0239 35.1624 20.0717 34.8259C20.1355 34.4519 19.9283 34.0593 19.6094 33.9845C19.2906 33.9097 18.9558 34.1528 18.892 34.5267C18.8282 34.9006 19.0355 35.2559 19.3543 35.3681ZM32.1244 42.1177C31.8055 42.0429 31.4707 42.286 31.4069 42.6599C31.3432 43.0339 31.5504 43.4265 31.8693 43.4826C31.9012 43.4826 31.949 43.5013 31.9809 43.5013C32.2519 43.5013 32.507 43.2769 32.5548 42.9404C32.6505 42.5851 32.4273 42.1925 32.1244 42.1177ZM28.8721 41.3324C28.5532 41.2576 28.2184 41.5007 28.1706 41.8746C28.1068 42.2486 28.3141 42.6225 28.6329 42.6973C28.6648 42.716 28.7126 42.716 28.7445 42.716C29.0155 42.716 29.2706 42.4916 29.3185 42.1551C29.3982 41.7812 29.1909 41.4072 28.8721 41.3324ZM12.499 24.4864C12.1802 24.449 11.8613 24.7107 11.8294 25.0847C11.7975 25.4586 12.0207 25.8326 12.3396 25.87C12.3555 25.87 12.3874 25.87 12.4033 25.87C12.6903 25.87 12.9454 25.6082 12.9932 25.253C13.057 24.8603 12.8179 24.5238 12.499 24.4864ZM9.27859 23.9068C8.95974 23.832 8.62495 24.075 8.56118 24.4303C8.49741 24.8042 8.70466 25.1969 9.00757 25.2717C9.0554 25.2717 9.08728 25.2904 9.15106 25.2904C9.42208 25.2904 9.66122 25.066 9.72499 24.7481C9.8047 24.3742 9.59745 23.9816 9.27859 23.9068ZM19.1471 27.8332C19.3703 27.534 19.3384 27.0853 19.0992 26.8609C18.8442 26.5991 18.4615 26.6365 18.2702 26.917C18.047 27.2162 18.0789 27.6649 18.3181 27.8892C18.4297 28.0014 18.5731 28.0762 18.7166 28.0762C18.8442 28.0575 19.0195 27.9827 19.1471 27.8332ZM15.831 25.1034C15.5122 25.0286 15.1774 25.2343 15.1136 25.6269C15.0498 26.0195 15.2252 26.3935 15.56 26.4683C15.6078 26.487 15.6397 26.487 15.7035 26.487C15.9745 26.487 16.2136 26.2626 16.2774 25.9448C16.3412 25.5708 16.1499 25.2156 15.831 25.1034ZM19.2427 37.8548C18.9558 38.0417 18.8442 38.4531 19.0036 38.7896C19.0992 39.0327 19.3065 39.1449 19.5297 39.1449C19.6253 39.1449 19.721 39.1262 19.8167 39.0701C20.1036 38.8831 20.2152 38.4718 20.0558 38.1165C19.9123 37.7987 19.5297 37.6678 19.2427 37.8548Z" fill="white"/>
</svg>
