<svg width="40" height="47" viewBox="0 0 40 47" fill="none" xmlns="http://www.w3.org/2000/svg">
<path d="M10.8333 12.9524L29.1666 33.9047M10.8333 24.3809L19.1666 33.9047M20.8333 12.9524L29.1666 22.4762M10.6899 12.7886C11.3148 12.0742 11.6659 11.1054 11.6659 10.0952C11.6659 9.08508 11.3148 8.11628 10.6899 7.40189L8.33325 4.70856L3.61992 10.0952L5.97659 12.7886C6.60168 13.5027 7.44937 13.9039 8.33325 13.9039C9.21713 13.9039 10.0648 13.5027 10.6899 12.7886ZM29.3099 34.0686C28.685 34.783 28.334 35.7517 28.334 36.7619C28.334 37.772 28.685 38.7408 29.3099 39.4552L31.6666 42.1486L36.3799 36.7619L34.0233 34.0686C33.3982 33.3544 32.5505 32.9532 31.6666 32.9532C30.7827 32.9532 29.935 33.3544 29.3099 34.0686ZM36.6666 5.33332C20.0283 10.2876 7.28825 20.48 3.33325 42.4762C19.9716 37.5219 32.7116 27.3295 36.6666 5.33332Z" stroke="white" stroke-width="1.66667" stroke-linecap="round" stroke-linejoin="round"/>
</svg>
