<svg width="40" height="46" viewBox="0 0 40 46" fill="none" xmlns="http://www.w3.org/2000/svg">
<path d="M21.974 12.2583C21.81 12.5463 21.644 12.8251 21.484 13.0903C21.3163 13.377 21.0878 13.6105 20.8198 13.769C20.5519 13.9276 20.2532 14.0061 19.9515 13.9972C19.6499 13.9883 19.3551 13.8923 19.0946 13.7181C18.8342 13.544 18.6166 13.2973 18.462 13.0011C18.3033 12.7365 18.1473 12.4699 17.994 12.2011C16.994 10.4617 16 8.40455 16 7.14284C16 5.93042 16.4214 4.76766 17.1716 3.91035C17.9217 3.05304 18.9391 2.57141 20 2.57141C21.0609 2.57141 22.0783 3.05304 22.8284 3.91035C23.5786 4.76766 24 5.93042 24 7.14284C24 8.40227 23.004 10.4571 22.008 12.2034L21.974 12.2583ZM22 7.14284C22 6.53663 21.7893 5.95525 21.4142 5.5266C21.0391 5.09794 20.5304 4.85713 20 4.85713C19.4696 4.85713 18.9609 5.09794 18.5858 5.5266C18.2107 5.95525 18 6.53663 18 7.14284C18 7.74905 18.2107 8.33043 18.5858 8.75908C18.9609 9.18774 19.4696 9.42855 20 9.42855C20.5304 9.42855 21.0391 9.18774 21.4142 8.75908C21.7893 8.33043 22 7.74905 22 7.14284ZM16.87 14.3886C16.6964 14.1021 16.5257 13.8133 16.358 13.5223L5.648 26.416C4.58951 27.6906 3.99959 29.381 4 31.1383V34.5714C4 35.7838 4.42143 36.9466 5.17157 37.8039C5.92172 38.6612 6.93913 39.1428 8 39.1428H32C33.0609 39.1428 34.0783 38.6612 34.8284 37.8039C35.5786 36.9466 36 35.7838 36 34.5714V31.1383C36.0004 29.381 35.4105 27.6906 34.352 26.416L23.642 13.5246C23.468 13.8263 23.296 14.1166 23.13 14.3886C22.91 14.7543 22.656 15.0628 22.378 15.3211L26.914 20.784C24.384 20.9554 22.318 22.0251 20.522 22.9554C20.038 23.2068 19.572 23.4468 19.122 23.6571C17.802 24.2743 16.594 24.6628 15.29 24.5554C14.176 24.464 12.906 24.0068 11.37 22.848L17.62 15.3211C17.3317 15.0529 17.0784 14.7388 16.868 14.3886M9.972 24.5303C11.852 26.0137 13.538 26.7063 15.146 26.8366C16.904 26.9806 18.446 26.4411 19.876 25.7714C20.43 25.5131 20.966 25.2388 21.496 24.9691C23.756 23.8103 25.898 22.7131 28.864 23.1314L32.9 27.9908C33.606 28.8402 33.9997 29.9668 34 31.1383V34.5714C34 35.1776 33.7893 35.759 33.4142 36.1877C33.0391 36.6163 32.5304 36.8571 32 36.8571H8C7.46957 36.8571 6.96086 36.6163 6.58579 36.1877C6.21071 35.759 6 35.1776 6 34.5714V31.1383C6.00026 29.9668 6.39401 28.8402 7.1 27.9908L9.972 24.5303Z" fill="white"/>
</svg>
