<svg width="40" height="40" viewBox="0 0 40 40" fill="none" xmlns="http://www.w3.org/2000/svg">
<g clip-path="url(#clip0_121_165)">
<path d="M20 27.1333C19.121 27.1333 18.2617 27.394 17.5308 27.8823C16.7999 28.3707 16.2302 29.0648 15.8939 29.8769C15.5575 30.689 15.4695 31.5827 15.6409 32.4448C15.8124 33.307 16.2357 34.0989 16.8573 34.7204C17.4789 35.342 18.2708 35.7653 19.1329 35.9368C19.9951 36.1083 20.8887 36.0203 21.7008 35.6839C22.5129 35.3475 23.207 34.7778 23.6954 34.0469C24.1838 33.3161 24.4444 32.4568 24.4444 31.5777C24.4444 30.399 23.9762 29.2685 23.1427 28.435C22.3092 27.6016 21.1787 27.1333 20 27.1333ZM20 33.8C19.5605 33.8 19.1308 33.6696 18.7654 33.4255C18.3999 33.1813 18.1151 32.8342 17.9469 32.4282C17.7787 32.0221 17.7347 31.5753 17.8205 31.1442C17.9062 30.7131 18.1179 30.3172 18.4286 30.0064C18.7394 29.6956 19.1354 29.484 19.5665 29.3982C19.9975 29.3125 20.4443 29.3565 20.8504 29.5247C21.2565 29.6929 21.6035 29.9777 21.8477 30.3431C22.0919 30.7086 22.2222 31.1382 22.2222 31.5777C22.2222 32.1671 21.9881 32.7323 21.5713 33.1491C21.1546 33.5658 20.5894 33.8 20 33.8Z" fill="white"/>
<path d="M29.1223 24.2777C29.2081 24.159 29.2696 24.0244 29.3032 23.8818C29.3368 23.7392 29.3419 23.5914 29.3181 23.4468C29.2944 23.3022 29.2423 23.1637 29.1648 23.0394C29.0873 22.915 28.986 22.8072 28.8667 22.7222C27.2026 21.5271 25.3122 20.684 23.3112 20.2444L27.6112 24.5444C27.849 24.7028 28.1387 24.7635 28.4201 24.7138C28.7015 24.6641 28.953 24.508 29.1223 24.2777Z" fill="white"/>
<path d="M20.0556 11.9111C18.5027 11.9153 16.9542 12.0754 15.4333 12.3889L17.3667 14.3222C18.258 14.2021 19.1562 14.139 20.0556 14.1334C24.2554 14.135 28.3567 15.4053 31.8222 17.7778C32.0652 17.917 32.3519 17.9594 32.6248 17.8963C32.8976 17.8332 33.1366 17.6695 33.2939 17.4377C33.4512 17.206 33.5152 16.9234 33.4731 16.6466C33.4309 16.3697 33.2858 16.1189 33.0667 15.9445C29.2349 13.3202 24.6999 11.9144 20.0556 11.9111Z" fill="white"/>
<path d="M37.2778 9.11115C33.1523 6.38521 28.4386 4.6777 23.5245 4.12911C18.6103 3.58051 13.6361 4.20651 9.01111 5.95559L10.7667 7.70004C14.9509 6.27331 19.4067 5.82589 23.791 6.39223C28.1754 6.95857 32.3712 8.52357 36.0556 10.9667C36.3016 11.123 36.5992 11.1763 36.8842 11.1152C37.1693 11.0541 37.4188 10.8834 37.5792 10.64C37.7395 10.3966 37.7978 10.0999 37.7414 9.81387C37.685 9.52788 37.5185 9.27551 37.2778 9.11115Z" fill="white"/>
<path d="M2.04443 5.27783L4.74443 7.97783C4.05554 8.35561 3.37777 8.75561 2.7111 9.20006C2.58999 9.28177 2.48616 9.38653 2.40554 9.50837C2.32493 9.63021 2.26909 9.76673 2.24124 9.91015C2.18497 10.1998 2.24608 10.4999 2.4111 10.7445C2.57612 10.9891 2.83155 11.1581 3.12119 11.2144C3.41083 11.2706 3.71096 11.2095 3.95554 11.0445C4.73332 10.5223 5.55554 10.0001 6.37777 9.61117L10.6778 13.9112C9.36315 14.4881 8.10575 15.1875 6.92221 16.0001C6.74742 16.1867 6.64236 16.428 6.62478 16.6831C6.60719 16.9382 6.67814 17.1916 6.82567 17.4005C6.9732 17.6094 7.18826 17.761 7.43458 17.8297C7.6809 17.8985 7.94339 17.8801 8.17777 17.7778C9.48529 16.8807 10.8906 16.1351 12.3667 15.5556L16.9889 20.1778C14.8603 20.6267 12.8548 21.5328 11.1111 22.8334C10.8939 23.0144 10.7539 23.2714 10.7196 23.552C10.6852 23.8326 10.7591 24.1158 10.9263 24.3438C11.0934 24.5718 11.3411 24.7275 11.6191 24.7793C11.897 24.831 12.1842 24.7749 12.4222 24.6223C14.3175 23.2456 16.5543 22.4155 18.8889 22.2223L30.8889 34.2223L32.4555 32.6556L3.56666 3.76672L2.04443 5.27783Z" fill="white"/>
</g>
<defs>
<clipPath id="clip0_121_165">
<rect width="40" height="40" fill="white"/>
</clipPath>
</defs>
</svg>
