<svg width="40" height="40" viewBox="0 0 40 40" fill="none" xmlns="http://www.w3.org/2000/svg">
<path d="M5.83329 13.3333C5.83362 11.7532 6.24241 10.2 7.01999 8.82439C7.79757 7.44881 8.91753 6.29759 10.2712 5.48244C11.6249 4.6673 13.1662 4.21592 14.7458 4.1721C16.3253 4.12829 17.8893 4.49352 19.2861 5.23237C20.6829 5.97121 21.8649 7.05857 22.7176 8.38893C23.5702 9.71929 24.0645 11.2475 24.1524 12.8252C24.2404 14.4029 23.919 15.9765 23.2194 17.3934C22.5199 18.8102 21.466 20.0222 20.16 20.9117C22.9725 21.9432 25.4119 23.7929 27.1644 26.2225C28.9168 28.6522 29.902 31.5507 29.9933 34.545C29.9894 34.8678 29.8609 35.1767 29.6347 35.407C29.4085 35.6374 29.102 35.7714 28.7793 35.7811C28.4565 35.7907 28.1426 35.6753 27.9029 35.459C27.6633 35.2426 27.5165 34.942 27.4933 34.62C27.394 31.3724 26.0342 28.2911 23.7019 26.029C21.3696 23.7669 18.2482 22.5018 14.9991 22.5018C11.75 22.5018 8.62862 23.7669 6.29634 26.029C3.96406 28.2911 2.60421 31.3724 2.50496 34.62C2.48827 34.9464 2.34442 35.2533 2.10423 35.4749C1.86403 35.6965 1.54659 35.8152 1.21992 35.8056C0.893242 35.7961 0.583314 35.6589 0.35653 35.4236C0.129745 35.1883 0.00414196 34.8735 0.00662801 34.5467C0.0975469 31.5521 1.08264 28.6532 2.8351 26.2232C4.58757 23.7932 7.0272 21.9433 9.83996 20.9117C8.60468 20.0711 7.59378 18.941 6.89541 17.6201C6.19705 16.2992 5.83241 14.8275 5.83329 13.3333ZM15 6.66667C13.2319 6.66667 11.5362 7.36905 10.2859 8.61929C9.03567 9.86953 8.33329 11.5652 8.33329 13.3333C8.33329 15.1014 9.03567 16.7971 10.2859 18.0474C11.5362 19.2976 13.2319 20 15 20C16.7681 20 18.4638 19.2976 19.714 18.0474C20.9642 16.7971 21.6666 15.1014 21.6666 13.3333C21.6666 11.5652 20.9642 9.86953 19.714 8.61929C18.4638 7.36905 16.7681 6.66667 15 6.66667ZM28.8166 13.3333C28.57 13.3333 28.33 13.35 28.0933 13.3833C27.9281 13.4129 27.7586 13.4089 27.5949 13.3716C27.4312 13.3342 27.2768 13.2643 27.1407 13.166C27.0047 13.0676 26.8898 12.9429 26.803 12.7992C26.7162 12.6556 26.6593 12.4959 26.6355 12.3297C26.6118 12.1635 26.6218 11.9942 26.6649 11.832C26.708 11.6698 26.7833 11.5179 26.8864 11.3854C26.9894 11.2529 27.1181 11.1425 27.2648 11.0608C27.4114 10.9792 27.573 10.9279 27.74 10.91C29.3976 10.6703 31.0878 10.9887 32.5447 11.8149C34.0016 12.6411 35.1424 13.9283 35.7876 15.4739C36.4328 17.0195 36.5458 18.7357 36.1087 20.3526C35.6716 21.9694 34.7093 23.395 33.3733 24.405C35.3373 25.2844 37.0048 26.7133 38.1747 28.5194C39.3447 30.3254 39.967 32.4315 39.9666 34.5833C39.9666 34.9149 39.8349 35.2328 39.6005 35.4672C39.3661 35.7016 39.0481 35.8333 38.7166 35.8333C38.3851 35.8333 38.0672 35.7016 37.8327 35.4672C37.5983 35.2328 37.4666 34.9149 37.4666 34.5833C37.4664 32.7236 36.8672 30.9133 35.7577 29.4208C34.6482 27.9283 33.0874 26.8328 31.3066 26.2967L30.4166 26.03V23.2367L31.1 22.8883C32.1129 22.3752 32.9233 21.5358 33.4005 20.5054C33.8776 19.4751 33.9936 18.314 33.7297 17.2096C33.4658 16.1052 32.8374 15.122 31.946 14.4187C31.0545 13.7154 29.9521 13.333 28.8166 13.3333Z" fill="white"/>
</svg>
