<svg width="40" height="40" viewBox="0 0 40 40" fill="none" xmlns="http://www.w3.org/2000/svg">
<path d="M34.6235 25.0468L27.2422 21.739C26.9078 21.5957 26.5429 21.5381 26.1806 21.5714C25.8182 21.6047 25.4699 21.7278 25.1672 21.9297C25.1365 21.9494 25.1072 21.9713 25.0797 21.9953L21.2219 25.2765C21.1819 25.2984 21.1373 25.3106 21.0917 25.3122C21.0462 25.3138 21.0009 25.3048 20.9594 25.2859C18.4797 24.089 15.911 21.5359 14.7094 19.0906C14.6894 19.0497 14.679 19.0048 14.679 18.9593C14.679 18.9138 14.6894 18.869 14.7094 18.8281L18.0016 14.9218C18.0252 14.8929 18.0471 14.8627 18.0672 14.8312C18.2662 14.5273 18.3865 14.1786 18.417 13.8166C18.4476 13.4546 18.3875 13.0907 18.2422 12.7578L14.9578 5.38903C14.7713 4.95404 14.4487 4.59128 14.0385 4.35519C13.6284 4.1191 13.1526 4.02242 12.6828 4.07965C10.641 4.34809 8.76676 5.35081 7.41037 6.90044C6.05397 8.45007 5.30824 10.4406 5.31252 12.5C5.31252 24.7343 15.2656 34.6875 27.5 34.6875C29.5593 34.6914 31.5496 33.9456 33.0992 32.5892C34.6488 31.2329 35.6516 29.3589 35.9203 27.3172C35.9774 26.8495 35.8821 26.376 35.6484 25.9669C35.4147 25.5579 35.0553 25.2352 34.6235 25.0468ZM27.5 32.8125C16.3 32.8125 7.18752 23.7 7.18752 12.5C7.18229 10.8967 7.76096 9.34644 8.8154 8.13873C9.86984 6.93103 11.3279 6.14854 12.9172 5.93747H12.9531C13.0161 5.93864 13.0773 5.95882 13.1286 5.99534C13.1799 6.03187 13.2189 6.08304 13.2406 6.14216L16.5375 13.5031C16.5563 13.544 16.5661 13.5885 16.5661 13.6336C16.5661 13.6786 16.5563 13.7231 16.5375 13.764L13.2391 17.6797C13.2145 17.7076 13.192 17.7374 13.1719 17.7687C12.9655 18.0838 12.844 18.4469 12.819 18.8227C12.7941 19.1985 12.8667 19.5745 13.0297 19.914C14.4156 22.7515 17.275 25.589 20.1438 26.975C20.4853 27.1371 20.8631 27.2079 21.2401 27.1805C21.6172 27.1531 21.9808 27.0285 22.2953 26.8187C22.325 26.7984 22.3547 26.7765 22.3828 26.7531L26.2391 23.4718C26.2772 23.4514 26.3192 23.4394 26.3624 23.4367C26.4055 23.434 26.4487 23.4407 26.4891 23.4562L33.8719 26.764C33.9322 26.7897 33.9829 26.8337 34.0168 26.8898C34.0508 26.9459 34.0662 27.0112 34.061 27.0765C33.851 28.6665 33.0692 30.1257 31.8618 31.1813C30.6543 32.2369 29.1038 32.8168 27.5 32.8125Z" fill="white"/>
</svg>
