<svg width="40" height="40" viewBox="0 0 40 40" fill="none" xmlns="http://www.w3.org/2000/svg">
<g clip-path="url(#clip0_147_245)">
<path d="M1.04905 12.2432C0.473708 12.6247 0.316591 13.4005 0.698125 13.9758C1.07966 14.5511 1.85536 14.7083 2.43071 14.3267L1.04905 12.2432ZM37.57 14.3267C38.1453 14.7083 38.921 14.5511 39.3026 13.9758C39.6841 13.4005 39.527 12.6247 38.9516 12.2432L37.57 14.3267ZM19.3353 3.11671C19.5316 2.98651 19.7631 2.91663 20.0003 2.91663V0.416626C19.2725 0.416626 18.5605 0.630856 17.9538 1.03309L19.3353 3.11671ZM20.0003 2.91663C20.2376 2.91663 20.4691 2.98651 20.6655 3.11671L22.047 1.03315C21.4403 0.630914 20.7281 0.416626 20.0003 0.416626V2.91663ZM2.43071 14.3267L19.3353 3.11671L17.9538 1.03309L1.04905 12.2432L2.43071 14.3267ZM20.6655 3.11671L37.57 14.3267L38.9516 12.2432L22.047 1.03315L20.6655 3.11671Z" fill="white"/>
<path d="M14.5833 20.385L13.3352 20.316C13.3339 20.339 13.3333 20.362 13.3333 20.385H14.5833ZM15.955 27.065L17.203 27.1348C17.2043 27.1115 17.205 27.0883 17.205 27.065H15.955ZM13.6105 29.8433C13.177 30.3805 13.261 31.1675 13.7983 31.601C14.3355 32.0346 15.1225 31.9505 15.5561 31.4133L13.6105 29.8433ZM16.9078 17.633C17.3386 17.0936 17.2506 16.3071 16.7111 15.8762C16.1718 15.4454 15.3852 15.5334 14.9544 16.0729L16.9078 17.633ZM13.3333 20.385C13.3333 21.7208 13.7432 23.0186 14.0745 24.0941C14.4292 25.2456 14.705 26.1743 14.705 27.065H17.205C17.205 25.7306 16.795 24.4335 16.4637 23.3583C16.1092 22.2071 15.8333 21.2775 15.8333 20.385H13.3333ZM14.7069 26.9951C14.6487 28.0358 14.2652 29.0321 13.6105 29.8433L15.5561 31.4133C16.5394 30.1948 17.1155 28.6983 17.203 27.1348L14.7069 26.9951ZM14.9544 16.0729C13.9869 17.2843 13.4207 18.7673 13.3352 20.316L15.8314 20.4538C15.8883 19.4243 16.2647 18.4383 16.9078 17.633L14.9544 16.0729Z" fill="white"/>
<path d="M23.3333 20.3849L22.0851 20.3159C22.084 20.3389 22.0833 20.3619 22.0833 20.3849H23.3333ZM24.705 27.0649L25.953 27.1348C25.9543 27.1116 25.955 27.0883 25.955 27.0649H24.705ZM22.3605 29.8433C21.927 30.3804 22.0111 31.1674 22.5483 31.6011C23.0855 32.0346 23.8725 31.9506 24.3061 31.4133L22.3605 29.8433ZM25.6508 17.6419C26.0803 17.1014 25.9905 16.3151 25.4501 15.8856C24.9096 15.456 24.1233 15.5458 23.6938 16.0862L25.6508 17.6419ZM22.0833 20.3849C22.0833 21.7208 22.4933 23.0186 22.8245 24.0941C23.1791 25.2456 23.455 26.1743 23.455 27.0649H25.955C25.955 25.7306 25.545 24.4334 25.2138 23.3583C24.8591 22.2071 24.5833 21.2774 24.5833 20.3849H22.0833ZM23.457 26.9951C23.3986 28.0358 23.0151 29.0321 22.3605 29.8433L24.3061 31.4133C25.2895 30.1948 25.8655 28.6983 25.953 27.1348L23.457 26.9951ZM23.6938 16.0862C22.7328 17.2951 22.1705 18.7729 22.0851 20.3159L24.5815 20.4539C24.6381 19.4281 25.012 18.4456 25.6508 17.6419L23.6938 16.0862Z" fill="white"/>
<path d="M5.83325 38.3334H4.58325C4.58325 39.0237 5.1429 39.5834 5.83325 39.5834V38.3334ZM34.1666 38.3334V39.5834C34.8569 39.5834 35.4166 39.0237 35.4166 38.3334H34.1666ZM35.4166 10.8334C35.4166 10.143 34.8569 9.58337 34.1666 9.58337C33.4763 9.58337 32.9166 10.143 32.9166 10.8334H35.4166ZM4.58325 10.8334V38.3334H7.08325V10.8334H4.58325ZM5.83325 39.5834H34.1666V37.0834H5.83325V39.5834ZM35.4166 38.3334V10.8334H32.9166V38.3334H35.4166Z" fill="white"/>
</g>
<defs>
<clipPath id="clip0_147_245">
<rect width="40" height="40" fill="white"/>
</clipPath>
</defs>
</svg>
