<svg width="20" height="20" viewBox="0 0 20 20" fill="none" xmlns="http://www.w3.org/2000/svg">
<path d="M9.17367 1.40984C9.43547 0.826806 9.56643 0.535291 9.74873 0.44552C9.90705 0.367525 10.093 0.367525 10.2513 0.44552C10.4336 0.535291 10.5646 0.826806 10.8264 1.40984L12.9117 6.05376C12.9892 6.22612 13.0279 6.3123 13.0878 6.37829C13.1407 6.43669 13.2055 6.48339 13.2778 6.51537C13.3596 6.55151 13.4541 6.56141 13.6432 6.58121L18.7371 7.11489C19.3766 7.18188 19.6963 7.21538 19.8387 7.35973C19.9623 7.4851 20.0197 7.66067 19.9939 7.83426C19.9643 8.03408 19.7255 8.2477 19.2478 8.67506L15.4427 12.0789C15.3015 12.2051 15.2308 12.2683 15.1862 12.3452C15.1466 12.4134 15.1218 12.4889 15.1136 12.5671C15.1042 12.6554 15.1239 12.7477 15.1633 12.9323L16.2261 17.906C16.3596 18.5305 16.4263 18.8427 16.332 19.0216C16.25 19.1772 16.0996 19.2857 15.9253 19.3149C15.7247 19.3486 15.4462 19.1892 14.8891 18.8703L10.452 16.33C10.2874 16.2357 10.205 16.1886 10.1175 16.1701C10.04 16.1538 9.95998 16.1538 9.88251 16.1701C9.79498 16.1886 9.71265 16.2357 9.54799 16.33L5.11095 18.8703C4.5539 19.1892 4.27537 19.3486 4.07474 19.3149C3.90046 19.2857 3.75 19.1772 3.66808 19.0216C3.57378 18.8427 3.64049 18.5305 3.77392 17.906L4.83669 12.9323C4.87614 12.7477 4.89586 12.6554 4.88649 12.5671C4.8782 12.4889 4.85347 12.4134 4.81389 12.3452C4.76916 12.2683 4.69855 12.2051 4.55734 12.0789L0.752309 8.67506C0.274608 8.2477 0.035752 8.03408 0.00605475 7.83426C-0.0197296 7.66067 0.0377312 7.4851 0.161383 7.35973C0.30374 7.21538 0.6235 7.18188 1.26302 7.11489L6.35689 6.58121C6.54596 6.56141 6.64048 6.55151 6.72222 6.51537C6.79454 6.48339 6.85929 6.43669 6.91229 6.37829C6.97217 6.3123 7.01087 6.22612 7.08828 6.05376L9.17367 1.40984Z" fill="#FFE352"/>
</svg>
