<svg width="36" height="36" viewBox="0 0 36 36" fill="none" xmlns="http://www.w3.org/2000/svg">
<path d="M3 30V13.5C3 12.7044 3.31607 11.9413 3.87868 11.3787C4.44129 10.8161 5.20435 10.5 6 10.5H30C30.7956 10.5 31.5587 10.8161 32.1213 11.3787C32.6839 11.9413 33 12.7044 33 13.5V30C33 30.7956 32.6839 31.5587 32.1213 32.1213C31.5587 32.6839 30.7956 33 30 33H6C5.20435 33 4.44129 32.6839 3.87868 32.1213C3.31607 31.5587 3 30.7956 3 30Z" stroke="white" stroke-width="2.5"/>
<path d="M12.75 3.75L18 9L23.25 3.75" stroke="white" stroke-width="2.5" stroke-linecap="round" stroke-linejoin="round"/>
</svg>
