<svg width="35" height="53" viewBox="0 0 35 53" fill="none" xmlns="http://www.w3.org/2000/svg">
<path d="M17.5 0.322662C7.83891 0.322662 0 7.90335 0 17.2444C0 32.2859 17.5 52.968 17.5 52.968C17.5 52.968 35 32.2859 35 17.2444C35 7.90335 27.1611 0.322662 17.5 0.322662ZM17.5 26.6453C16.1155 26.6453 14.7622 26.2042 13.611 25.3778C12.4599 24.5515 11.5627 23.3769 11.0328 22.0026C10.503 20.6284 10.3644 19.1162 10.6345 17.6573C10.9046 16.1985 11.5713 14.8584 12.5503 13.8066C13.5292 12.7548 14.7765 12.0385 16.1344 11.7483C17.4922 11.4581 18.8997 11.6071 20.1788 12.1763C21.4579 12.7455 22.5511 13.7095 23.3203 14.9463C24.0895 16.183 24.5 17.6371 24.5 19.1246C24.498 21.1185 23.7598 23.0302 22.4475 24.4401C21.1352 25.8501 19.3559 26.6431 17.5 26.6453Z" fill="white"/>
</svg>
