<svg width="40" height="40" viewBox="0 0 40 40" fill="none" xmlns="http://www.w3.org/2000/svg">
<path d="M27.9666 12.0333C28.2033 12.2666 28.3333 12.585 28.3333 12.9166V17.0833C28.3333 17.4148 28.2016 17.7328 27.9671 17.9672C27.7327 18.2016 27.4148 18.3333 27.0833 18.3333C26.7517 18.3333 26.4338 18.2016 26.1994 17.9672C25.9649 17.7328 25.8333 17.4148 25.8333 17.0833V15.9333L22.9666 18.8C22.8512 18.9193 22.7132 19.0145 22.5607 19.0799C22.4082 19.1453 22.2441 19.1797 22.0782 19.1811C21.9122 19.1825 21.7476 19.1508 21.594 19.0878C21.4404 19.0249 21.3009 18.932 21.1836 18.8146C21.0663 18.6972 20.9735 18.5576 20.9108 18.4039C20.848 18.2503 20.8164 18.0857 20.8179 17.9197C20.8195 17.7537 20.854 17.5897 20.9196 17.4372C20.9852 17.2848 21.0805 17.1469 21.1999 17.0316L24.0666 14.1666H22.9166C22.5851 14.1666 22.2671 14.0349 22.0327 13.8005C21.7983 13.5661 21.6666 13.2481 21.6666 12.9166C21.6666 12.5851 21.7983 12.2672 22.0327 12.0327C22.2671 11.7983 22.5851 11.6666 22.9166 11.6666H27.0833C27.4147 11.6669 27.7324 11.7988 27.9666 12.0333ZM11.6666 27.0833C11.6666 27.4148 11.7983 27.7328 12.0327 27.9672C12.2671 28.2016 12.5851 28.3333 12.9166 28.3333H17.0849C17.4164 28.3333 17.7344 28.2016 17.9688 27.9672C18.2032 27.7328 18.3349 27.4148 18.3349 27.0833C18.3349 26.7518 18.2032 26.4338 17.9688 26.1994C17.7344 25.965 17.4164 25.8333 17.0849 25.8333H15.9349L18.8016 22.9666C19.0292 22.7308 19.155 22.415 19.152 22.0872C19.149 21.7595 19.0174 21.446 18.7855 21.2144C18.5537 20.9827 18.2401 20.8514 17.9123 20.8487C17.5846 20.846 17.2689 20.9721 17.0333 21.2L14.1666 24.0633V22.9133C14.1666 22.5818 14.0349 22.2638 13.8005 22.0294C13.566 21.795 13.2481 21.6633 12.9166 21.6633C12.5851 21.6633 12.2671 21.795 12.0327 22.0294C11.7983 22.2638 11.6666 22.5818 11.6666 22.9133V27.0833ZM3.33325 11.25C3.33325 10.0344 3.81614 8.86859 4.67568 8.00905C5.53522 7.14951 6.70101 6.66663 7.91659 6.66663H32.0833C33.2988 6.66663 34.4646 7.14951 35.3242 8.00905C36.1837 8.86859 36.6666 10.0344 36.6666 11.25V28.75C36.6666 29.3519 36.548 29.9478 36.3177 30.5039C36.0874 31.06 35.7498 31.5653 35.3242 31.9909C34.8986 32.4165 34.3933 32.7541 33.8372 32.9844C33.2811 33.2147 32.6851 33.3333 32.0833 33.3333H7.91659C7.31469 33.3333 6.7187 33.2147 6.16262 32.9844C5.60654 32.7541 5.10128 32.4165 4.67568 31.9909C4.25008 31.5653 3.91247 31.06 3.68214 30.5039C3.4518 29.9478 3.33325 29.3519 3.33325 28.75V11.25ZM7.91659 9.16663C6.76659 9.16663 5.83325 10.1 5.83325 11.25V28.75C5.83325 29.9 6.76659 30.8333 7.91659 30.8333H32.0833C33.2333 30.8333 34.1666 29.9 34.1666 28.75V11.25C34.1666 10.1 33.2333 9.16663 32.0833 9.16663H7.91659Z" fill="white"/>
</svg>
